<svg width="15" height="15" viewBox="0 0 15 15" fill="none" xmlns="http://www.w3.org/2000/svg">
<path fill-rule="evenodd" clip-rule="evenodd" d="M14.8129 7.80257C14.9276 7.74526 15 7.62811 15 7.49995C15 7.3718 14.9276 7.25465 14.8129 7.19734C12.3066 5.94415 2.76556 1.17365 0.489507 0.0356191C0.384653 -0.016833 0.260116 -0.0111806 0.160369 0.050443C0.060621 0.112067 -0.000110934 0.220986 -0.000110939 0.338234C-0.000110986 1.41434 2.85148 6.34368 3.42751 7.32847C3.48973 7.43431 3.48973 7.56559 3.42751 7.67144C2.85148 8.65623 -0.000111518 13.5856 -0.000111565 14.6617C-0.00011157 14.7789 0.0606203 14.8878 0.160368 14.9495C0.260116 15.0111 0.384652 15.0167 0.489507 14.9643L14.8129 7.80257Z" fill="#FFDA9D"/>
</svg>
