<svg width="13" height="13" viewBox="0 0 13 13" fill="none" xmlns="http://www.w3.org/2000/svg">
<path d="M9.78918 2.46349L5.60854 2.45569C5.49858 2.45801 5.3939 2.50328 5.3169 2.58181C5.2399 2.66035 5.1967 2.7659 5.19656 2.87589C5.19641 2.98587 5.23933 3.09154 5.31612 3.17028C5.39291 3.24901 5.49747 3.29456 5.60742 3.29717L8.74931 3.30274L2.94032 9.11173C2.8973 9.14978 2.86253 9.19624 2.83814 9.24824C2.81375 9.30023 2.80026 9.35667 2.7985 9.41408C2.79674 9.47149 2.80675 9.52865 2.82792 9.58204C2.84908 9.63543 2.88095 9.68393 2.92156 9.72454C2.96218 9.76515 3.01067 9.79702 3.06406 9.81819C3.11746 9.83935 3.17462 9.84937 3.23202 9.84761C3.28943 9.84585 3.34587 9.83236 3.39787 9.80797C3.44987 9.78358 3.49632 9.7488 3.53437 9.70578L9.36677 3.87339L9.34894 7.03646C9.34558 7.09361 9.35391 7.15085 9.37344 7.20467C9.39296 7.25849 9.42326 7.30776 9.46248 7.34947C9.5017 7.39118 9.54902 7.42444 9.60155 7.44723C9.65407 7.47002 9.71069 7.48185 9.76794 7.482C9.82519 7.48216 9.88187 7.47062 9.93452 7.44811C9.98716 7.4256 10.0347 7.39259 10.0741 7.35109C10.1135 7.30959 10.1441 7.26048 10.1639 7.20677C10.1837 7.15305 10.1924 7.09586 10.1893 7.03868L10.2094 2.8859C10.2094 2.83056 10.1986 2.77575 10.1774 2.72461C10.1563 2.67347 10.1252 2.627 10.0861 2.58787C10.047 2.54874 10.0005 2.51771 9.94936 2.49656C9.89822 2.4754 9.84341 2.46455 9.78807 2.46461L9.78918 2.46349Z" fill="white"/>
</svg>
