<svg width="520" height="177" viewBox="0 0 520 177" fill="none" xmlns="http://www.w3.org/2000/svg">
<path d="M12.4927 153.637C11.6682 154.126 10.9435 154.655 10.3187 155.222C9.69398 155.789 9.1646 156.357 8.73064 156.926C8.29666 157.495 7.94879 158.036 7.68701 158.549C7.18284 159.537 6.97051 160.423 7.05 161.206C7.1295 161.989 7.5303 162.565 8.25241 162.933C8.89851 163.263 9.52754 163.344 10.1395 163.178C10.7422 162.982 11.3365 162.639 11.9225 162.147C12.4992 161.627 13.0955 161.045 13.7113 160.402C14.3369 159.739 14.9861 159.1 15.6589 158.485C16.3128 157.861 17.0231 157.337 17.7898 156.914C18.5565 156.491 19.3789 156.264 20.2569 156.233C21.1159 156.192 22.0585 156.434 23.0846 156.957C24.2628 157.558 25.1241 158.405 25.6686 159.497C26.1941 160.579 26.4035 161.812 26.2968 163.195C26.1999 164.558 25.7781 165.971 25.0316 167.435C24.4983 168.48 23.8466 169.429 23.0764 170.281C22.2872 171.124 21.432 171.861 20.511 172.493C19.5996 173.105 18.6558 173.594 17.6797 173.958L15.6565 171.094C16.6326 170.729 17.5331 170.279 18.358 169.742C19.1926 169.186 19.9227 168.576 20.5482 167.913C21.1835 167.232 21.6805 166.539 22.0392 165.836C22.6403 164.658 22.8777 163.629 22.7513 162.751C22.6345 161.853 22.1676 161.195 21.3505 160.779C20.6854 160.439 20.0515 160.367 19.4488 160.563C18.8369 160.729 18.233 161.068 17.6373 161.578C17.0514 162.07 16.4551 162.652 15.8485 163.324C15.2517 163.978 14.6215 164.626 13.9579 165.269C13.2851 165.884 12.5748 166.408 11.8271 166.841C11.089 167.254 10.2857 167.491 9.41698 167.551C8.55797 167.592 7.61539 167.35 6.58923 166.827C5.46807 166.255 4.65405 165.456 4.14718 164.431C3.62132 163.396 3.40667 162.221 3.50325 160.905C3.60952 159.57 4.03109 158.181 4.76795 156.737C5.42724 155.444 6.25717 154.287 7.25775 153.265C8.25832 152.243 9.30019 151.421 10.3834 150.8L12.4927 153.637ZM10.275 146.735L19.5053 131.337L22.2774 132.999L18.6248 139.092L35.065 148.948L33.1235 152.186L16.6833 142.331L13.0471 148.396L10.275 146.735ZM25.0813 123.527L27.3045 120.357L51.2664 125.201L48.9514 128.502L29.2463 124.22L40.0035 141.261L37.7435 144.484L25.0813 123.527ZM33.7088 135.635L41.4073 124.658L44.0272 126.495L36.3287 137.473L33.7088 135.635ZM32.8738 112.563L44.2567 98.6814L46.7559 100.731L42.2514 106.224L57.0735 118.378L54.6793 121.298L39.8572 109.144L35.373 114.613L32.8738 112.563ZM69.636 81.0248C68.4298 80.9529 67.2515 81.1226 66.1011 81.534C64.9506 81.9454 63.9718 82.547 63.1647 83.3388C62.3728 84.1156 61.776 85 61.3743 85.9918C60.9729 86.9534 60.7671 87.9622 60.757 89.0181C60.7621 90.059 60.9711 91.0793 61.3839 92.0789C61.7818 93.0633 62.3841 93.9667 63.1909 94.789C63.9827 95.5961 64.8743 96.2156 65.8658 96.6475C66.8424 97.0642 67.851 97.2851 68.8917 97.3101C69.9476 97.3202 70.9676 97.1414 71.9517 96.7737C72.951 96.391 73.8466 95.8113 74.6385 95.0344C75.4456 94.2426 76.0732 93.2982 76.5212 92.2012C76.9542 91.0891 77.184 89.9372 77.2105 88.7457L80.4454 88.8446C80.4353 89.9005 80.2818 90.9625 79.985 92.0308C79.7033 93.0841 79.294 94.0833 78.7569 95.0286C78.2351 95.9589 77.5935 96.7976 76.8321 97.5445C75.6594 98.6949 74.3689 99.5575 72.9604 100.132C71.537 100.692 70.0786 100.972 68.5851 100.973C67.1068 100.959 65.669 100.666 64.2715 100.094C62.859 99.5076 61.5926 98.6432 60.4721 97.501C59.3516 96.3589 58.5265 95.0913 57.9968 93.6984C57.4521 92.2902 57.1944 90.8395 57.2238 89.3463C57.2684 87.8382 57.5916 86.3855 58.1933 84.9883C58.8102 83.5762 59.7126 82.2874 60.9005 81.1221C61.6619 80.3751 62.5052 79.7421 63.4304 79.2229C64.3556 78.7038 65.3249 78.3058 66.3383 78.0288C67.3517 77.7519 68.3712 77.6184 69.397 77.6282L69.636 81.0248ZM78.8668 65.2691C80.1551 64.216 81.535 63.4602 83.0062 63.0016C84.4939 62.5296 85.9815 62.3607 87.4689 62.495C88.9729 62.6158 90.3949 63.0241 91.7349 63.7197C93.078 64.3853 94.2558 65.3376 95.2684 66.5764C96.2809 67.8152 96.9932 69.1755 97.4053 70.6572C97.8203 72.1089 97.9374 73.5837 97.7566 75.0816C97.5922 76.566 97.1374 77.9985 96.3922 79.3791C95.6501 80.7296 94.6348 81.9314 93.3464 82.9845C92.058 84.0375 90.67 84.8001 89.1822 85.2722C87.6975 85.7142 86.2032 85.8748 84.6992 85.754C83.2118 85.6197 81.7898 85.2114 80.4332 84.5293C79.0797 83.8172 77.8966 82.8417 76.884 81.6028C75.8715 80.364 75.1577 79.0187 74.7426 77.567C74.3441 76.1019 74.2337 74.6353 74.4116 73.1674C74.5924 71.6695 75.054 70.2453 75.7961 68.8947C76.5548 67.5307 77.5784 66.3222 78.8668 65.2691ZM80.9167 67.7265C80.0577 68.4286 79.3834 69.2553 78.8936 70.2067C78.4068 71.128 78.1106 72.1141 78.005 73.1647C77.8994 74.2154 77.9987 75.2639 78.3029 76.3102C78.6101 77.3266 79.1282 78.2807 79.8572 79.1727C80.5863 80.0646 81.4333 80.7638 82.3982 81.2701C83.3631 81.7764 84.3776 82.0906 85.4417 82.2127C86.4924 82.3183 87.5244 82.2325 88.5377 81.9554C89.5675 81.6647 90.5036 81.1751 91.3461 80.4865C92.1885 79.798 92.8463 78.9848 93.3196 78.0469C93.8094 77.0955 94.0988 76.1012 94.1879 75.0641C94.2635 74.0104 94.1409 72.9671 93.8202 71.9343C93.5161 70.8879 92.9994 69.9188 92.2704 69.0268C91.5413 68.1348 90.7011 67.4439 89.7497 66.9541C88.8014 66.4343 87.8101 66.1149 86.776 65.9958C85.7418 65.8767 84.7166 65.9707 83.7003 66.2779C82.6869 66.5551 81.7591 67.038 80.9167 67.7265ZM93.3868 54.2498L97.0539 51.8472L111.861 60.3174L109.955 43.3943L113.622 40.9918L125.898 59.7284L122.981 61.6399L113.572 47.3373L115.517 63.737L113.51 65.0523L99.198 56.7547L108.58 71.0749L105.663 72.9864L93.3868 54.2498ZM120.456 36.9512L133.74 29.8992L135.227 32.7689L125.306 38.0354L128.427 43.9144L137.415 39.1431L138.916 41.9695L129.928 46.7408L134.294 54.9658L130.959 56.7362L120.456 36.9512ZM147.652 23.5928C149.183 22.9397 150.718 22.5975 152.259 22.5662C153.819 22.5266 155.295 22.7782 156.687 23.321C158.098 23.8554 159.35 24.643 160.444 25.6839C161.548 26.6969 162.415 27.9391 163.043 29.4107C163.671 30.8823 163.977 32.387 163.96 33.9249C163.955 35.4347 163.658 36.8839 163.067 38.2724C162.496 39.6525 161.661 40.902 160.561 42.0208C159.473 43.1116 158.163 43.9835 156.633 44.6367C155.102 45.2898 153.557 45.6362 151.997 45.6758C150.448 45.6874 148.968 45.4261 147.557 44.8917C146.165 44.3489 144.913 43.5612 143.8 42.5287C142.698 41.4681 141.832 40.2021 141.204 38.7305C140.576 37.2589 140.265 35.7682 140.27 34.2583C140.295 32.7401 140.597 31.3007 141.176 29.9402C141.766 28.5517 142.606 27.3121 143.694 26.2213C144.802 25.1221 146.122 24.246 147.652 23.5928ZM148.938 26.5235C147.917 26.9589 147.04 27.5654 146.305 28.343C145.581 29.0926 145.022 29.9573 144.628 30.9372C144.235 31.917 144.038 32.9517 144.039 34.0414C144.052 35.1031 144.284 36.1637 144.736 37.2232C145.188 38.2828 145.808 39.1899 146.594 39.9447C147.38 40.6994 148.267 41.2834 149.255 41.6967C150.235 42.0904 151.25 42.295 152.3 42.3106C153.37 42.3179 154.406 42.108 155.406 41.6809C156.407 41.2539 157.265 40.6557 157.981 39.8865C158.716 39.1089 159.27 38.2343 159.644 37.2629C160.01 36.2718 160.182 35.2357 160.162 34.1544C160.161 33.0647 159.934 31.9901 159.482 30.9305C159.03 29.871 158.415 28.9736 157.637 28.2385C156.871 27.4754 156.007 26.8929 155.047 26.4908C154.087 26.0888 153.076 25.8939 152.014 25.9063C150.964 25.8907 149.938 26.0964 148.938 26.5235ZM173.053 14.3209C175.795 13.4421 178.113 13.4051 180.006 14.2098C181.913 14.9876 183.235 16.5244 183.97 18.8201C184.738 21.2174 184.586 23.3273 183.512 25.1499C182.452 26.9456 180.551 28.2829 177.808 29.1617L172.749 30.7826L174.829 37.2735L171.233 38.4257L164.398 17.094L173.053 14.3209ZM176.822 26.0838C178.467 25.5565 179.623 24.7942 180.289 23.7967C180.969 22.7724 181.068 21.5085 180.586 20.0052C180.124 18.5627 179.325 17.6426 178.19 17.2448C177.068 16.8202 175.685 16.8715 174.039 17.3988L168.98 19.0196L171.763 27.7047L176.822 26.0838ZM177.481 27.7208L181.016 26.5882L188.847 32.7819L184.764 34.0903L177.481 27.7208ZM185.502 10.4204L202.959 6.23508L203.712 9.37802L196.804 11.0342L201.273 29.674L197.601 30.5544L193.132 11.9146L186.255 13.5633L185.502 10.4204ZM212.56 4.78155L216.383 4.16963L229.592 24.7406L225.611 25.3778L214.963 8.25344L210.223 27.8407L206.336 28.4627L212.56 4.78155ZM209.877 19.4053L223.117 17.2863L223.622 20.4461L210.383 22.5651L209.877 19.4053ZM240.668 1.48914C242.221 1.37814 243.567 1.50653 244.705 1.87432C245.865 2.24059 246.773 2.81738 247.428 3.60469C248.104 4.39047 248.484 5.36854 248.568 6.53889C248.657 7.79435 248.383 8.89404 247.745 9.83794C247.106 10.7818 246.191 11.4354 244.998 11.7987C246.505 11.9476 247.721 12.4917 248.643 13.431C249.566 14.3703 250.081 15.5954 250.189 17.1062C250.28 18.3829 250.029 19.5024 249.435 20.4645C248.84 21.4267 247.954 22.1958 246.776 22.7719C245.598 23.348 244.169 23.6961 242.488 23.8162L232.561 24.5256L230.964 2.18254L240.668 1.48914ZM241.14 10.7911C242.332 10.706 243.249 10.3731 243.892 9.79246C244.533 9.19054 244.819 8.40017 244.749 7.42133C244.68 6.46377 244.288 5.75397 243.57 5.29194C242.851 4.80862 241.897 4.62018 240.707 4.72661L234.961 5.13717L235.395 11.2017L241.14 10.7911ZM241.842 20.6221C243.312 20.5384 244.442 20.1797 245.23 19.5459C246.018 18.8907 246.373 18.0206 246.295 16.9353C246.222 15.9139 245.75 15.1456 244.879 14.6304C244.007 14.0939 242.837 13.8887 241.37 14.0149L235.625 14.4255L236.097 21.0326L241.842 20.6221ZM255.167 0.734737L258.943 0.74646L258.884 19.9144L268.579 19.9445L268.569 23.1765L255.097 23.1346L255.167 0.734737ZM273.832 1.05679L289.789 2.23722L289.55 5.46041L277.36 4.55857L276.895 10.8454L287.809 11.6528L287.573 14.8441L276.658 14.0367L276.184 20.4511L288.758 21.3813L288.519 24.6045L272.18 23.3957L273.832 1.05679ZM303.505 3.94996L307.479 4.79873L309.179 25.6454L308.24 25.4449L318.307 7.11113L321.937 7.88638L323.668 28.7398L322.729 28.5393L332.765 10.1988L336.583 11.0141L324.488 31.3362L320.67 30.5209L318.955 10.3581L319.888 10.5899L309.999 28.2419L306.212 27.4332L303.505 3.94996ZM341.334 12.3687L344.946 13.4691L338.418 34.8968L334.806 33.7963L341.334 12.3687ZM349.129 14.7906L366.007 20.9071L364.906 23.9458L358.227 21.5253L351.696 39.5464L348.146 38.2599L354.677 20.2388L348.028 17.8292L349.129 14.7906ZM370.683 22.9468L374.113 24.5254L370.006 33.4497L380.791 38.413L384.898 29.4887L388.328 31.0674L378.964 51.4159L375.533 49.8372L379.453 41.3199L368.668 36.3566L364.749 44.8739L361.318 43.2953L370.683 22.9468ZM403.068 38.9047L406.327 40.8121L395.012 60.1442L391.753 58.2368L403.068 38.9047ZM411.509 69.7194C411.574 70.8739 411.761 71.8671 412.072 72.6988C412.388 73.5601 412.864 74.2072 413.498 74.64C413.992 74.9766 414.625 75.2023 415.399 75.317C416.179 75.4614 417.036 75.4913 417.972 75.4066L417.79 78.3425C416.64 78.5137 415.496 78.4689 414.357 78.2083C413.235 77.9597 412.242 77.5408 411.379 76.9517C410.198 76.1462 409.328 75.0364 408.769 73.6222C408.228 72.2199 408.02 70.6319 408.146 68.8581L411.509 69.7194ZM421.001 50.2407C422.375 51.1784 423.491 52.2879 424.347 53.5693C425.221 54.8626 425.804 56.2416 426.096 57.7062C426.405 59.1829 426.416 60.6623 426.128 62.1444C425.87 63.6209 425.29 65.0201 424.388 66.3418C423.487 67.6636 422.384 68.7317 421.079 69.5462C419.804 70.3551 418.423 70.8848 416.935 71.1352C415.465 71.3976 413.962 71.3668 412.427 71.0428C410.922 70.7131 409.482 70.0795 408.107 69.1417C406.732 68.204 405.608 67.0885 404.734 65.7952C403.89 64.4962 403.313 63.1084 403.004 61.6318C402.712 60.1671 402.701 58.6877 402.971 57.1936C403.271 55.6938 403.872 54.2831 404.774 52.9613C405.675 51.6396 406.763 50.5742 408.038 49.7653C409.331 48.9685 410.706 48.4476 412.164 48.2028C413.652 47.9524 415.149 47.992 416.654 48.3216C418.177 48.6633 419.626 49.303 421.001 50.2407ZM419.224 52.9022C418.307 52.2771 417.324 51.8643 416.273 51.6637C415.251 51.4576 414.222 51.4525 413.184 51.6486C412.146 51.8446 411.169 52.2366 410.251 52.8244C409.363 53.4067 408.595 54.1736 407.946 55.1253C407.297 56.0769 406.866 57.0871 406.653 58.1559C406.441 59.2246 406.426 60.2866 406.61 61.3418C406.806 62.3794 407.181 63.3449 407.733 64.2384C408.304 65.1439 409.038 65.9032 409.937 66.5163C410.836 67.1294 411.802 67.5302 412.835 67.7187C413.886 67.9193 414.922 67.9155 415.942 67.7075C416.974 67.4818 417.94 67.069 418.84 66.4691C419.757 65.8813 420.541 65.1115 421.19 64.1598C421.839 63.2082 422.264 62.2068 422.464 61.1557C422.694 60.099 422.72 59.0578 422.542 58.0323C422.364 57.0067 421.983 56.05 421.401 55.1621C420.848 54.2687 420.123 53.5154 419.224 52.9022ZM443.061 66.9364L445.88 69.4492L439.343 76.7822L448.204 84.6825L454.742 77.3494L457.56 79.8622L442.654 96.5824L439.835 94.0697L446.075 87.0711L437.213 79.1708L430.974 86.1694L428.155 83.6566L443.061 66.9364ZM470.253 92.6889C471.383 93.9106 472.222 95.2417 472.769 96.6821C473.331 98.1383 473.591 99.6127 473.548 101.106C473.519 102.614 473.198 104.058 472.586 105.438C472.003 106.82 471.125 108.053 469.95 109.14C468.775 110.226 467.461 111.02 466.007 111.522C464.584 112.025 463.119 112.232 461.613 112.143C460.121 112.069 458.664 111.703 457.24 111.043C455.847 110.385 454.585 109.445 453.455 108.224C452.326 107.002 451.48 105.663 450.918 104.207C450.386 102.752 450.134 101.27 450.163 99.7616C450.206 98.2687 450.527 96.8245 451.125 95.4288C451.753 94.0342 452.654 92.7938 453.829 91.7075C455.004 90.6211 456.303 89.8265 457.726 89.3236C459.165 88.8363 460.622 88.6366 462.098 88.7245C463.604 88.8135 465.054 89.1872 466.447 89.8455C467.855 90.5194 469.123 91.4673 470.253 92.6889ZM467.926 94.8851C467.172 94.0706 466.306 93.448 465.327 93.0172C464.377 92.5876 463.375 92.3522 462.32 92.311C461.265 92.2698 460.224 92.4329 459.198 92.8004C458.203 93.1691 457.282 93.7446 456.436 94.5267C455.59 95.3089 454.944 96.197 454.498 97.191C454.051 98.185 453.8 99.2168 453.743 100.286C453.702 101.342 453.85 102.366 454.189 103.361C454.542 104.371 455.088 105.276 455.826 106.074C456.565 106.873 457.417 107.48 458.382 107.895C459.362 108.326 460.372 108.554 461.412 108.58C462.469 108.591 463.502 108.405 464.514 108.022C465.54 107.654 466.475 107.079 467.321 106.297C468.167 105.515 468.805 104.634 469.236 103.654C469.697 102.676 469.955 101.667 470.011 100.628C470.067 99.5883 469.91 98.5707 469.542 97.575C469.203 96.5805 468.664 95.6839 467.926 94.8851ZM482.143 106.517L484.764 110.032L477.207 125.326L493.983 122.398L496.603 125.912L478.645 139.301L476.56 136.505L490.266 126.246L474.015 129.182L472.58 127.258L479.995 112.47L466.27 122.703L464.185 119.906L482.143 106.517ZM501.09 132.578L509.375 146.265L506.61 147.939L500.28 137.482L494.887 140.746L500.554 150.108L497.817 151.765L492.15 142.403L486.647 145.734L493.176 156.52L490.411 158.193L481.927 144.177L501.09 132.578ZM514.107 166.674C514.2 165.719 514.202 164.823 514.113 163.983C514.025 163.144 513.879 162.381 513.677 161.695C513.474 161.009 513.243 160.408 512.984 159.894C512.485 158.903 511.896 158.209 511.217 157.81C510.539 157.411 509.837 157.395 509.113 157.759C508.466 158.086 508.028 158.545 507.801 159.137C507.603 159.739 507.529 160.421 507.579 161.184C507.657 161.957 507.774 162.782 507.93 163.659C508.095 164.555 508.226 165.457 508.325 166.363C508.442 167.259 508.445 168.142 508.333 169.01C508.221 169.879 507.918 170.676 507.424 171.403C506.95 172.12 506.198 172.738 505.169 173.256C503.988 173.851 502.796 174.046 501.593 173.84C500.409 173.624 499.291 173.064 498.239 172.161C497.196 171.277 496.306 170.102 495.566 168.635C495.038 167.587 494.658 166.501 494.426 165.376C494.212 164.241 494.123 163.115 494.158 161.999C494.202 160.902 494.365 159.852 494.649 158.849L498.155 158.91C497.872 159.912 497.703 160.905 497.649 161.888C497.604 162.89 497.665 163.839 497.83 164.735C498.004 165.651 498.269 166.461 498.624 167.166C499.219 168.347 499.909 169.146 500.693 169.563C501.486 170 502.292 170.012 503.111 169.599C503.778 169.263 504.211 168.794 504.409 168.192C504.636 167.6 504.72 166.913 504.66 166.131C504.61 165.368 504.493 164.543 504.309 163.656C504.135 162.788 503.984 161.897 503.857 160.981C503.759 160.075 503.756 159.193 503.849 158.334C503.951 157.494 504.235 156.706 504.7 155.97C505.175 155.253 505.927 154.635 506.956 154.117C508.08 153.55 509.205 153.366 510.331 153.562C511.477 153.75 512.552 154.271 513.556 155.127C514.57 156.001 515.442 157.162 516.171 158.61C516.824 159.906 517.267 161.259 517.501 162.67C517.734 164.082 517.781 165.408 517.642 166.648L514.107 166.674Z" fill="white"/>
</svg>
