<svg width="30" height="25" viewBox="0 0 30 25" fill="none" xmlns="http://www.w3.org/2000/svg">
<path d="M8.38415 23.1318C8.1487 23.1318 7.95866 22.9387 7.95866 22.7021C7.95866 22.4628 8.1487 22.2697 8.38415 22.2697H12.0264C12.112 21.8101 12.3341 21.3968 12.6472 21.0759C13.0566 20.6598 13.6239 20.4041 14.2475 20.4041C14.871 20.4041 15.4357 20.6598 15.8451 21.0759C16.1609 21.3968 16.383 21.8102 16.4687 22.2697H20.0546C20.1402 21.8101 20.3624 21.3968 20.6782 21.0759C21.0876 20.6598 21.6522 20.4041 22.2758 20.4041C22.902 20.4041 23.4666 20.6598 23.8761 21.0759C24.1892 21.3968 24.4113 21.8102 24.4969 22.2697H26.3782C26.7529 22.2697 27.0928 22.1147 27.3389 21.8645C27.5851 21.6116 27.7377 21.2662 27.7377 20.8882C27.7377 20.5075 27.5851 20.1621 27.3389 19.912C27.0927 19.6591 26.7528 19.5041 26.3782 19.5041C20.9671 19.5041 15.5561 19.5041 10.145 19.5041C9.53752 19.5041 8.98364 19.2512 8.58486 18.8459C8.18345 18.438 7.93459 17.8751 7.93459 17.2578C7.93459 16.6404 8.18345 16.0776 8.58486 15.6723C8.85779 15.395 9.20039 15.1882 9.58576 15.0849C8.06846 10.3449 6.5537 5.60214 5.0364 0.862088H0.422847C0.190041 0.862088 0 0.668968 0 0.429702C0 0.193121 0.190041 0 0.422847 0H5.30405C5.3656 0 5.42451 0.0108405 5.47804 0.0353044C5.60379 0.0760776 5.7082 0.176716 5.7537 0.312659L6.5217 2.71943H29.5763C29.8786 2.71943 30.0794 3.03218 29.9697 3.30953L26.0572 15.5498C26.009 15.7375 25.843 15.8762 25.6451 15.8762H10.145C9.77033 15.8762 9.43046 16.0312 9.18434 16.2814C8.93813 16.5317 8.78557 16.877 8.78557 17.2577C8.78557 17.6384 8.93813 17.9838 9.18434 18.234C9.43056 18.4868 9.77042 18.6419 10.145 18.6419H26.3782C26.9857 18.6419 27.5396 18.8948 27.9384 19.3C28.3398 19.7079 28.5887 20.2681 28.5887 20.8881C28.5887 21.5055 28.3398 22.0657 27.9384 22.4736C27.5396 22.8815 26.9857 23.1317 26.3782 23.1317H24.4969C24.4113 23.594 24.1891 24.0074 23.8761 24.3256C23.4666 24.7416 22.902 25 22.2758 25C21.6522 25 21.0876 24.7416 20.6782 24.3256C20.3624 24.0073 20.1402 23.594 20.0546 23.1317H16.4687C16.383 23.594 16.1609 24.0074 15.8451 24.3256C15.4357 24.7416 14.871 25 14.2475 25C13.6239 25 13.0566 24.7416 12.6472 24.3256C12.334 24.0073 12.112 23.594 12.0264 23.1317L8.38415 23.1318Z" fill="#FFDA9D"/>
</svg>
