<svg width="48" height="48" viewBox="0 0 48 48" fill="none" xmlns="http://www.w3.org/2000/svg">
<circle cx="24" cy="24" r="23.5" stroke="#FFDA9D"/>
<path d="M17.3842 35.1318C17.1487 35.1318 16.9587 34.9387 16.9587 34.7021C16.9587 34.4628 17.1487 34.2697 17.3842 34.2697H21.0264C21.112 33.8101 21.3341 33.3968 21.6472 33.0759C22.0566 32.6598 22.6239 32.4041 23.2475 32.4041C23.871 32.4041 24.4357 32.6598 24.8451 33.0759C25.1609 33.3968 25.383 33.8102 25.4687 34.2697H29.0546C29.1402 33.8101 29.3624 33.3968 29.6782 33.0759C30.0876 32.6598 30.6522 32.4041 31.2758 32.4041C31.902 32.4041 32.4666 32.6598 32.8761 33.0759C33.1892 33.3968 33.4113 33.8102 33.4969 34.2697H35.3782C35.7529 34.2697 36.0928 34.1147 36.3389 33.8645C36.5851 33.6116 36.7377 33.2662 36.7377 32.8882C36.7377 32.5075 36.5851 32.1621 36.3389 31.912C36.0927 31.6591 35.7528 31.5041 35.3782 31.5041C29.9671 31.5041 24.5561 31.5041 19.145 31.5041C18.5375 31.5041 17.9836 31.2512 17.5849 30.8459C17.1834 30.438 16.9346 29.8751 16.9346 29.2578C16.9346 28.6404 17.1834 28.0776 17.5849 27.6723C17.8578 27.395 18.2004 27.1882 18.5858 27.0849C17.0685 22.3449 15.5537 17.6021 14.0364 12.8621H9.42285C9.19004 12.8621 9 12.669 9 12.4297C9 12.1931 9.19004 12 9.42285 12H14.304C14.3656 12 14.4245 12.0108 14.478 12.0353C14.6038 12.0761 14.7082 12.1767 14.7537 12.3127L15.5217 14.7194H38.5763C38.8786 14.7194 39.0794 15.0322 38.9697 15.3095L35.0572 27.5498C35.009 27.7375 34.843 27.8762 34.6451 27.8762H19.145C18.7703 27.8762 18.4305 28.0312 18.1843 28.2814C17.9381 28.5317 17.7856 28.877 17.7856 29.2577C17.7856 29.6384 17.9381 29.9838 18.1843 30.234C18.4306 30.4868 18.7704 30.6419 19.145 30.6419H35.3782C35.9857 30.6419 36.5396 30.8948 36.9384 31.3C37.3398 31.7079 37.5887 32.2681 37.5887 32.8881C37.5887 33.5055 37.3398 34.0657 36.9384 34.4736C36.5396 34.8815 35.9857 35.1317 35.3782 35.1317H33.4969C33.4113 35.594 33.1891 36.0074 32.8761 36.3256C32.4666 36.7416 31.902 37 31.2758 37C30.6522 37 30.0876 36.7416 29.6782 36.3256C29.3624 36.0073 29.1402 35.594 29.0546 35.1317H25.4687C25.383 35.594 25.1609 36.0074 24.8451 36.3256C24.4357 36.7416 23.871 37 23.2475 37C22.6239 37 22.0566 36.7416 21.6472 36.3256C21.334 36.0073 21.112 35.594 21.0264 35.1317L17.3842 35.1318Z" fill="#FFDA9D"/>
</svg>
