<svg width="27" height="25" viewBox="0 0 27 25" fill="none" xmlns="http://www.w3.org/2000/svg">
<path d="M26.0804 16.1653C26.0804 15.955 25.8701 15.7447 25.8701 15.324C25.741 15.0731 25.5628 14.8506 25.346 14.6699C25.1292 14.4893 24.8783 14.3541 24.6081 14.2724H2.10326C1.56136 14.3198 1.05348 14.5566 0.668839 14.9413C0.284196 15.3259 0.0473839 15.8338 0 16.3757C0 16.9335 0.221592 17.4685 0.61603 17.8629C1.01047 18.2573 1.54544 18.4789 2.10326 18.4789H18.719L15.9848 21.2132C15.7169 21.5309 15.5395 21.915 15.4713 22.3249C15.4031 22.7349 15.4466 23.1557 15.5973 23.5431C15.7479 23.9304 16.0001 24.2701 16.3274 24.5263C16.6546 24.7825 17.0449 24.9458 17.457 24.999C17.7337 25.0079 18.0088 24.956 18.2632 24.8469C18.5176 24.7379 18.745 24.5745 18.9293 24.3681L25.4494 17.848L25.8701 17.217V16.3757L26.0804 16.1653Z" fill="#FFDA9D"/>
<path d="M23.9773 6.49036H7.36153L10.0958 3.75612C10.4949 3.32784 10.7169 2.76414 10.7169 2.17868C10.7169 1.59321 10.4949 1.02951 10.0958 0.601232C9.70261 0.215858 9.17402 0 8.62348 0C8.07295 0 7.54436 0.215858 7.1512 0.601232L0.631101 7.12133L0.210449 7.75231V8.59361C0.210449 8.80394 0.420775 9.01427 0.420775 9.43492C0.54981 9.68591 0.728036 9.90836 0.944839 10.089C1.16164 10.2697 1.41259 10.4049 1.68273 10.4865H23.9773C24.5192 10.4392 25.027 10.2024 25.4117 9.81771C25.7963 9.43306 26.0331 8.92519 26.0805 8.38329C26.0282 7.86268 25.7837 7.38027 25.3948 7.03025C25.0059 6.68023 24.5005 6.48773 23.9773 6.49036Z" fill="#FFDA9D"/>
</svg>
