<svg width="48" height="48" viewBox="0 0 48 48" fill="none" xmlns="http://www.w3.org/2000/svg">
<circle cx="24" cy="24" r="23.5" stroke="#FFDA9D"/>
<path d="M37.0804 27.1653C37.0804 26.955 36.8701 26.7447 36.8701 26.324C36.741 26.0731 36.5628 25.8506 36.346 25.6699C36.1292 25.4893 35.8783 25.3541 35.6081 25.2724H13.1033C12.5614 25.3198 12.0535 25.5566 11.6688 25.9413C11.2842 26.3259 11.0474 26.8338 11 27.3757C11 27.9335 11.2216 28.4685 11.616 28.8629C12.0105 29.2573 12.5454 29.4789 13.1033 29.4789H29.719L26.9848 32.2132C26.7169 32.5309 26.5395 32.915 26.4713 33.3249C26.4031 33.7349 26.4466 34.1557 26.5973 34.5431C26.7479 34.9304 27.0001 35.2701 27.3274 35.5263C27.6546 35.7825 28.0449 35.9458 28.457 35.999C28.7337 36.0079 29.0088 35.956 29.2632 35.8469C29.5176 35.7379 29.745 35.5745 29.9293 35.3681L36.4494 28.848L36.8701 28.217V27.3757L37.0804 27.1653Z" fill="#FFDA9D"/>
<path d="M34.9773 17.4904H18.3615L21.0958 14.7561C21.4949 14.3278 21.7169 13.7641 21.7169 13.1787C21.7169 12.5932 21.4949 12.0295 21.0958 11.6012C20.7026 11.2159 20.174 11 19.6235 11C19.0729 11 18.5444 11.2159 18.1512 11.6012L11.6311 18.1213L11.2104 18.7523V19.5936C11.2104 19.8039 11.4208 20.0143 11.4208 20.4349C11.5498 20.6859 11.728 20.9084 11.9448 21.089C12.1616 21.2697 12.4126 21.4049 12.6827 21.4865H34.9773C35.5192 21.4392 36.027 21.2024 36.4117 20.8177C36.7963 20.4331 37.0331 19.9252 37.0805 19.3833C37.0282 18.8627 36.7837 18.3803 36.3948 18.0302C36.0059 17.6802 35.5005 17.4877 34.9773 17.4904Z" fill="#FFDA9D"/>
</svg>
