<svg width="48" height="45" viewBox="0 0 48 45" fill="none" xmlns="http://www.w3.org/2000/svg">
<path d="M29.0217 31.9124H28.32C28.9073 31.9124 29.4335 31.676 29.8225 31.2946C30.2039 30.9132 30.4403 30.3793 30.4403 29.7921C30.4403 28.6175 29.4869 27.6717 28.32 27.6717H22.4318C23.7666 24.4683 23.5149 21.12 23.2174 19.3276C23.0954 18.5573 22.4318 18.0005 21.6538 18.0005C21.2191 18.0005 20.8225 18.1759 20.5403 18.4581C20.2581 18.7479 20.075 19.1369 20.075 19.5717V19.6174C19.4648 23.2022 17.5199 25.2081 17.5199 25.2081L13.4775 29.5175V42.1023C13.4775 43.498 14.614 44.6421 16.0174 44.6421H27.5878C28.175 44.6421 28.7013 44.4057 29.0903 44.0243C29.4717 43.6429 29.7081 43.109 29.7081 42.5218C29.7081 41.3472 28.7547 40.4014 27.5878 40.4014H28.32C28.9073 40.4014 29.4335 40.165 29.8225 39.7836C30.2039 39.4023 30.4403 38.8684 30.4403 38.2811C30.4403 37.1065 29.4869 36.1607 28.32 36.1607H29.0217C29.6089 36.1607 30.1352 35.9243 30.5242 35.5429C30.9056 35.1616 31.142 34.6277 31.142 34.0404C31.142 32.8658 30.1962 31.9124 29.0217 31.9124Z" fill="black"/>
<path d="M11.0675 28.3955H6.08701C5.59125 28.3955 5.18701 28.7997 5.18701 29.2955V44.0998C5.18701 44.5956 5.59125 44.9998 6.08701 44.9998H11.0675C11.5633 44.9998 11.9675 44.5956 11.9675 44.0998V29.2955C11.9675 28.7997 11.5633 28.3955 11.0675 28.3955ZM8.57346 42.8337C7.90227 42.8337 7.36075 42.2922 7.36075 41.621C7.36075 40.9498 7.90227 40.4083 8.57346 40.4083C9.24465 40.4083 9.78618 40.9498 9.78618 41.621C9.79381 42.2922 9.24465 42.8337 8.57346 42.8337Z" fill="black"/>
<path d="M45.7636 8.48145H27.6949C26.8559 8.48145 26.1694 9.16789 26.1694 10.0069V20.273C26.1694 21.112 26.8559 21.7984 27.6949 21.7984H30.3796V25.5586L34.2618 21.7984H45.7636C46.6026 21.7984 47.289 21.112 47.289 20.273V10.0069C47.289 9.16026 46.6026 8.48145 45.7636 8.48145ZM30.5017 16.8408C29.5635 16.8408 28.8008 16.0781 28.8008 15.1399C28.8008 14.2018 29.5635 13.4391 30.5017 13.4391C31.4398 13.4391 32.2025 14.2018 32.2025 15.1399C32.2025 16.0857 31.4398 16.8408 30.5017 16.8408ZM36.733 16.8408C35.7949 16.8408 35.0322 16.0781 35.0322 15.1399C35.0322 14.2018 35.7949 13.4391 36.733 13.4391C37.6712 13.4391 38.4339 14.2018 38.4339 15.1399C38.4263 16.0857 37.6712 16.8408 36.733 16.8408ZM42.9568 16.8408C42.0186 16.8408 41.2559 16.0781 41.2559 15.1399C41.2559 14.2018 42.0186 13.4391 42.9568 13.4391C43.8949 13.4391 44.6576 14.2018 44.6576 15.1399C44.6576 16.0857 43.8949 16.8408 42.9568 16.8408Z" fill="black"/>
<path d="M0 30.6611H3.66103V42.7425H0V30.6611Z" fill="black"/>
<path d="M9.9458 19.8916C15.4373 19.8916 19.8916 15.4373 19.8916 9.9458C19.8916 4.45425 15.4373 0 9.9458 0C4.45425 0 0 4.45425 0 9.9458C0 15.4373 4.45425 19.8916 9.9458 19.8916ZM12.9356 5.45341C13.6526 5.45341 14.2399 6.30765 14.2399 7.36019C14.2399 8.41274 13.6602 9.26698 12.9356 9.26698C12.2111 9.26698 11.6314 8.41274 11.6314 7.36019C11.639 6.30765 12.2187 5.45341 12.9356 5.45341ZM12.5695 12.4628C12.8822 12.15 13.3856 12.15 13.6984 12.4628C14.0111 12.7755 14.0111 13.2789 13.6984 13.5916C12.6992 14.5907 11.3721 15.1399 9.95342 15.1399C8.53477 15.1399 7.20765 14.5907 6.2085 13.5916C5.89578 13.2789 5.89578 12.7755 6.2085 12.4628C6.52121 12.15 7.0246 12.15 7.33731 12.4628C8.72545 13.8661 11.1661 13.8661 12.5695 12.4628ZM6.95596 5.45341C7.67291 5.45341 8.2602 6.30765 8.2602 7.36019C8.2602 8.41274 7.68053 9.26698 6.95596 9.26698C6.239 9.26698 5.65171 8.41274 5.65171 7.36019C5.65171 6.30765 6.239 5.45341 6.95596 5.45341Z" fill="black"/>
</svg>
