<svg width="48" height="45" viewBox="0 0 48 45" fill="none" xmlns="http://www.w3.org/2000/svg">
<path d="M46.3892 20.3438C45.855 14.776 43.2654 9.60705 39.1257 5.84557C34.986 2.08409 29.5934 0 24 0C18.4067 0 13.014 2.08409 8.87432 5.84557C4.73465 9.60705 2.14504 14.776 1.61083 20.3438C1.14567 20.4814 0.737482 20.7657 0.447172 21.1543C0.156861 21.5429 0 22.0149 0 22.5C0 22.9851 0.156861 23.4571 0.447172 23.8457C0.737482 24.2343 1.14567 24.5186 1.61083 24.6562C2.14505 30.224 4.73466 35.393 8.87432 39.1544C13.014 42.9159 18.4066 45 24 45C29.5933 45 34.986 42.9159 39.1257 39.1544C43.2653 35.393 45.8549 30.224 46.3892 24.6562C46.8543 24.5186 47.2625 24.2344 47.5528 23.8458C47.8431 23.4572 48 22.9851 48 22.5C48 22.0149 47.8431 21.5429 47.5528 21.1543C47.2625 20.7657 46.8543 20.4814 46.3892 20.3438ZM2.25 23.25C2.10167 23.25 1.95666 23.206 1.83332 23.1236C1.70999 23.0412 1.61386 22.9241 1.55709 22.787C1.50033 22.65 1.48547 22.4992 1.51441 22.3537C1.54335 22.2082 1.61478 22.0746 1.71967 21.9697C1.82456 21.8648 1.9582 21.7934 2.10368 21.7644C2.24917 21.7355 2.39997 21.7503 2.53701 21.8071C2.67406 21.8639 2.79119 21.96 2.8736 22.0833C2.95601 22.2067 3 22.3517 3 22.5C2.99977 22.6989 2.92068 22.8895 2.78008 23.0301C2.63948 23.1707 2.44884 23.2498 2.25 23.25ZM44.8898 24.5783C44.376 29.762 41.9534 34.5694 38.0927 38.0664C34.232 41.5633 29.209 43.5 24 43.5C18.791 43.5 13.768 41.5633 9.90734 38.0664C6.04665 34.5694 3.62399 29.762 3.11023 24.5783C3.52154 24.4083 3.87315 24.1201 4.12054 23.7501C4.36794 23.3801 4.5 22.9451 4.5 22.5C4.5 22.0549 4.36794 21.6199 4.12054 21.2499C3.87315 20.8799 3.52154 20.5917 3.11023 20.4217C3.62399 15.2381 6.04665 10.4306 9.90734 6.93365C13.768 3.43668 18.791 1.5 24 1.5C29.209 1.5 34.232 3.43668 38.0927 6.93365C41.9534 10.4306 44.376 15.2381 44.8898 20.4217C44.4785 20.5917 44.1269 20.8799 43.8795 21.2499C43.6321 21.6199 43.5 22.0549 43.5 22.5C43.5 22.9451 43.6321 23.3801 43.8795 23.7501C44.1269 24.1201 44.4785 24.4083 44.8898 24.5783ZM45.75 23.25C45.6017 23.25 45.4567 23.206 45.3333 23.1236C45.21 23.0412 45.1139 22.9241 45.0571 22.787C45.0003 22.65 44.9855 22.4992 45.0144 22.3537C45.0434 22.2082 45.1148 22.0746 45.2197 21.9697C45.3246 21.8648 45.4582 21.7934 45.6037 21.7644C45.7492 21.7355 45.9 21.7503 46.037 21.8071C46.1741 21.8639 46.2912 21.96 46.3736 22.0833C46.456 22.2067 46.5 22.3517 46.5 22.5C46.4998 22.6989 46.4207 22.8895 46.2801 23.0301C46.1395 23.1707 45.9488 23.2498 45.75 23.25Z" fill="black"/>
<path d="M26.164 5.39099C26.0317 4.91885 25.7486 4.50292 25.3579 4.20664C24.9672 3.91037 24.4904 3.75 24 3.75C23.5097 3.75 23.0328 3.91037 22.6421 4.20664C22.2514 4.50292 21.9684 4.91885 21.8361 5.39099C17.6694 5.91669 13.8377 7.94484 11.0602 11.0949C8.28259 14.2449 6.75 18.3003 6.75 22.5C6.75 26.6997 8.28259 30.7551 11.0602 33.9051C13.8377 37.0551 17.6694 39.0833 21.8361 39.609C21.9684 40.0811 22.2514 40.4971 22.6421 40.7934C23.0328 41.0896 23.5097 41.25 24 41.25C24.4904 41.25 24.9672 41.0896 25.3579 40.7934C25.7486 40.4971 26.0317 40.0811 26.164 39.609C30.3307 39.0833 34.1623 37.0551 36.9399 33.9051C39.7175 30.7551 41.2501 26.6997 41.2501 22.5C41.2501 18.3003 39.7175 14.2449 36.9399 11.0949C34.1623 7.94484 30.3307 5.91669 26.164 5.39099ZM24 5.24999C24.1484 5.24999 24.2934 5.29398 24.4167 5.37639C24.54 5.4588 24.6362 5.57594 24.6929 5.71298C24.7497 5.85003 24.7646 6.00083 24.7356 6.14631C24.7067 6.2918 24.6353 6.42544 24.5304 6.53032C24.4255 6.63521 24.2918 6.70665 24.1464 6.73558C24.0009 6.76452 23.8501 6.74967 23.713 6.6929C23.576 6.63614 23.4588 6.54001 23.3764 6.41667C23.294 6.29334 23.25 6.14833 23.25 5.99999C23.2503 5.80115 23.3294 5.61052 23.47 5.46992C23.6106 5.32931 23.8012 5.25022 24 5.24999ZM24 39.75C23.8517 39.75 23.7067 39.706 23.5834 39.6236C23.46 39.5412 23.3639 39.424 23.3071 39.287C23.2504 39.15 23.2355 38.9992 23.2644 38.8537C23.2934 38.7082 23.3648 38.5746 23.4697 38.4697C23.5746 38.3648 23.7082 38.2933 23.8537 38.2644C23.9992 38.2355 24.15 38.2503 24.287 38.3071C24.4241 38.3639 24.5412 38.46 24.6236 38.5833C24.706 38.7067 24.75 38.8517 24.75 39C24.7498 39.1988 24.6707 39.3895 24.5301 39.5301C24.3895 39.6707 24.1989 39.7498 24 39.75ZM26.0652 38.109C25.8914 37.7055 25.6032 37.3617 25.2362 37.1202C24.8691 36.8787 24.4394 36.75 24 36.75C23.5607 36.75 23.1309 36.8787 22.7639 37.1202C22.3969 37.3617 22.1087 37.7055 21.9348 38.109C18.1487 37.6094 14.6733 35.7508 12.1557 32.8792C9.63813 30.0076 8.2501 26.3189 8.2501 22.5C8.2501 18.6811 9.63813 14.9923 12.1557 12.1208C14.6733 9.2492 18.1487 7.39056 21.9348 6.89099C22.1087 7.2945 22.3969 7.63825 22.7639 7.87977C23.1309 8.12129 23.5607 8.25 24 8.25C24.4394 8.25 24.8691 8.12129 25.2362 7.87977C25.6032 7.63825 25.8914 7.2945 26.0652 6.89099C29.8513 7.39056 33.3268 9.2492 35.8444 12.1208C38.3619 14.9923 39.75 18.6811 39.75 22.5C39.75 26.3189 38.3619 30.0076 35.8444 32.8792C33.3268 35.7508 29.8513 37.6094 26.0652 38.109Z" fill="black"/>
<path d="M34.0054 17.612C34.3793 17.1166 34.5617 16.5028 34.519 15.8836C34.4764 15.2644 34.2115 14.6815 33.7732 14.242L32.258 12.7267C31.8189 12.2877 31.2358 12.0224 30.6163 11.9797C29.9968 11.9369 29.3827 12.1198 28.8875 12.4943C28.4758 12.2927 28.052 12.1166 27.6185 11.9673C27.5323 11.3529 27.2271 10.7903 26.7591 10.3829C26.2912 9.97551 25.6919 9.75078 25.0714 9.75H22.9286C22.3081 9.75078 21.7088 9.97552 21.2409 10.3829C20.7729 10.7903 20.4677 11.3529 20.3814 11.9673C19.9479 12.1167 19.5241 12.2927 19.1123 12.4945C18.6171 12.1198 18.0031 11.937 17.3837 11.9797C16.7642 12.0224 16.1811 12.2877 15.742 12.7267L14.2267 14.242C13.7884 14.6815 13.5235 15.2645 13.4809 15.8837C13.4382 16.5029 13.6206 17.1168 13.9945 17.6122C13.7928 18.024 13.6167 18.4479 13.4673 18.8814C12.8529 18.9677 12.2903 19.2729 11.8829 19.7409C11.4755 20.2088 11.2508 20.8081 11.25 21.4286V23.5714C11.2508 24.1919 11.4755 24.7912 11.8829 25.2591C12.2903 25.7271 12.8529 26.0323 13.4673 26.1185C13.6167 26.5522 13.7928 26.9761 13.9946 27.388C13.6207 27.8834 13.4384 28.4972 13.481 29.1163C13.5237 29.7355 13.7885 30.3185 14.2268 30.7579L15.742 32.2732C16.1811 32.7122 16.7642 32.9776 17.3837 33.0203C18.0032 33.063 18.6172 32.8802 19.1125 32.5056C19.5242 32.7073 19.948 32.8833 20.3815 33.0327C20.4677 33.6471 20.7729 34.2097 21.2409 34.6171C21.7088 35.0245 22.3081 35.2492 22.9286 35.25H25.0714C25.6919 35.2492 26.2912 35.0245 26.7592 34.6171C27.2271 34.2097 27.5323 33.6471 27.6186 33.0327C28.0521 32.8833 28.4759 32.7073 28.8877 32.5055C29.3829 32.8802 29.9969 33.063 30.6163 33.0203C31.2358 32.9776 31.8189 32.7122 32.258 32.2732L33.7732 30.758C34.2116 30.3185 34.4765 29.7355 34.5191 29.1163C34.5618 28.497 34.3794 27.8832 34.0055 27.3878C34.2073 26.976 34.3833 26.5521 34.5327 26.1186C35.1471 26.0323 35.7097 25.7271 36.1171 25.2591C36.5245 24.7912 36.7492 24.1919 36.75 23.5714V21.4286C36.7492 20.8081 36.5245 20.2088 36.1171 19.7408C35.7097 19.2729 35.1471 18.9677 34.5327 18.8814C34.3833 18.4478 34.2072 18.0239 34.0054 17.612ZM21.5068 29.166C20.0234 28.6139 18.7666 27.5829 17.9353 26.2362C17.1039 24.8894 16.7455 23.3038 16.9168 21.7304C17.0881 20.157 17.7793 18.6857 18.881 17.5493C19.9827 16.413 21.4319 15.6766 22.9993 15.4567C23.0244 15.3225 23.0856 15.1978 23.1764 15.0959C23.2672 14.994 23.3841 14.9188 23.5145 14.8785C23.6449 14.8381 23.7838 14.8342 23.9163 14.867C24.0488 14.8999 24.1698 14.9683 24.2662 15.0648L24.7943 15.5929C24.935 15.734 25.014 15.925 25.014 16.1243C25.014 16.3235 24.935 16.5146 24.7943 16.6557L24.2662 17.1837C24.1812 17.27 24.0763 17.3343 23.9608 17.3709C23.8452 17.4075 23.7225 17.4153 23.6033 17.3937C23.484 17.3721 23.3718 17.3217 23.2765 17.2469C23.1811 17.1721 23.1055 17.0752 23.0561 16.9645C21.8555 17.1676 20.7534 17.7552 19.9157 18.6389C19.078 19.5227 18.5501 20.6546 18.4115 21.8644C18.2729 23.0741 18.5311 24.2961 19.1472 25.3464C19.7633 26.3967 20.704 27.2184 21.8275 27.6877C21.549 28.127 21.4353 28.6508 21.5068 29.166ZM21 22.5C21 21.9067 21.1759 21.3266 21.5056 20.8333C21.8352 20.3399 22.3038 19.9554 22.8519 19.7284C23.4001 19.5013 24.0033 19.4419 24.5853 19.5576C25.1672 19.6734 25.7018 19.9591 26.1213 20.3787C26.5409 20.7982 26.8266 21.3328 26.9424 21.9147C27.0581 22.4967 26.9987 23.0999 26.7716 23.6481C26.5446 24.1962 26.1601 24.6648 25.6667 24.9944C25.1734 25.3241 24.5933 25.5 24 25.5C23.2046 25.4991 22.4421 25.1827 21.8797 24.6203C21.3173 24.0579 21.0009 23.2954 21 22.5ZM25.0004 29.545C24.9747 29.6788 24.9131 29.803 24.8221 29.9044C24.7312 30.0058 24.6143 30.0805 24.484 30.1205C24.3538 30.1604 24.2152 30.1642 24.083 30.1313C23.9508 30.0984 23.8301 30.0301 23.7338 29.9337L23.2057 29.4056C23.065 29.2646 22.9859 29.0735 22.9859 28.8743C22.9859 28.675 23.065 28.4839 23.2057 28.3429L23.7338 27.8148C23.8188 27.7285 23.9236 27.6643 24.039 27.6277C24.1545 27.591 24.2772 27.5832 24.3964 27.6047C24.5156 27.6262 24.6278 27.6766 24.7231 27.7513C24.8185 27.826 24.8942 27.9228 24.9436 28.0334C26.1442 27.8307 27.2464 27.2433 28.0842 26.3597C28.922 25.4761 29.4499 24.3441 29.5885 23.1344C29.7271 21.9247 29.4688 20.7027 28.8525 19.6526C28.2362 18.6024 27.2954 17.7809 26.1717 17.3119C26.4505 16.8729 26.5645 16.3493 26.4934 15.8341C27.9768 16.3864 29.2336 17.4176 30.0649 18.7645C30.8962 20.1114 31.2545 21.6971 31.0832 23.2706C30.9118 24.8441 30.2206 26.3156 29.1189 27.452C28.0171 28.5884 26.5679 29.3249 25.0004 29.545Z" fill="black"/>
</svg>
