<svg width="45" height="45" viewBox="0 0 45 45" fill="none" xmlns="http://www.w3.org/2000/svg">
<path fill-rule="evenodd" clip-rule="evenodd" d="M7.48494 33.6062L1.34001 37.4815C1.04103 37.6696 0.6534 37.5811 0.4653 37.2934L0.11088 36.7617C0.01089 36.6066 -0.02205 36.452 0.02196 36.2745C0.05571 36.0976 0.15516 35.9645 0.29898 35.8648L2.49111 34.4919V32.3991C2.49111 32.255 2.61324 32.1333 2.75706 32.1333H3.8538C3.99744 32.1333 4.10796 32.255 4.10796 32.3991V33.4729L7.21944 31.5135C7.38558 31.4025 7.58493 31.4025 7.76205 31.5135L14.6714 35.8649C14.8265 35.9645 14.9152 36.0977 14.9594 36.2746C14.9926 36.4521 14.9594 36.6067 14.8595 36.7618L14.5055 37.2934C14.3172 37.5812 13.9295 37.6697 13.6415 37.4816L7.48494 33.6062ZM7.46298 0C11.5819 0 14.9261 3.34378 14.9261 7.46328C14.9261 11.5822 11.5819 14.9262 7.46298 14.9262C3.34386 14.9262 0 11.5821 0 7.46328C0 3.34378 3.34386 0 7.46298 0ZM39.1757 1.08513C39.9178 1.23994 40.6153 1.53883 41.2351 1.93771L42.0437 1.57204C42.1875 1.5058 42.3757 1.54999 42.5086 1.69381L43.3168 2.50264C43.4499 2.6353 43.4942 2.81224 43.4275 2.96713L43.073 3.77597C43.4721 4.39589 43.7707 5.09366 43.9261 5.83517L44.7567 6.15602C44.9004 6.21192 45 6.37788 45 6.5658V7.70655C45 7.8951 44.9004 8.06097 44.7567 8.11623L43.9261 8.43744C43.7707 9.19048 43.4721 9.87718 43.073 10.4969L43.4275 11.3165C43.4941 11.4603 43.4498 11.6487 43.3168 11.7813L42.5086 12.5898C42.3757 12.7225 42.1875 12.7671 42.0437 12.7004L41.2351 12.346C40.6153 12.7446 39.9178 13.0328 39.1757 13.1991L38.8545 14.0185C38.7881 14.1733 38.6332 14.2732 38.4448 14.2732H37.2932C37.1051 14.2732 36.95 14.1733 36.8838 14.0185L36.5625 13.1991C35.8207 13.0328 35.1229 12.7446 34.503 12.346L33.6948 12.7004C33.5508 12.7671 33.3626 12.7225 33.2297 12.5898L32.4215 11.7813C32.2884 11.6487 32.2441 11.4603 32.3105 11.3165L32.6649 10.4969C32.2663 9.87718 31.9674 9.19048 31.8123 8.43744L30.982 8.11623C30.8381 8.06097 30.7384 7.8951 30.7384 7.70655V6.5658C30.7384 6.37788 30.8381 6.21192 30.982 6.15602L31.8123 5.83517C31.9674 5.09366 32.2663 4.39589 32.6649 3.77597L32.3105 2.96713C32.2442 2.81224 32.2885 2.63521 32.4215 2.50264L33.2297 1.69381C33.3626 1.54999 33.5508 1.5058 33.6948 1.57204L34.503 1.93771C35.1229 1.53883 35.8207 1.23994 36.5625 1.08513L36.8838 0.254521C36.9499 0.0991805 37.1051 8.99938e-05 37.2932 8.99938e-05H38.4448C38.6332 8.99938e-05 38.788 0.0992704 38.8545 0.254521L39.1757 1.08513ZM37.8691 3.38824C39.9398 3.38824 41.6119 5.07125 41.6119 7.14198C41.6119 9.20128 39.9398 10.8846 37.8691 10.8846C35.7986 10.8846 34.1266 9.20128 34.1266 7.14198C34.1266 5.07134 35.7986 3.38824 37.8691 3.38824ZM37.537 30.0736C41.667 30.0736 45 33.4177 45 37.5366C45 41.656 41.667 45 37.537 45C33.4177 45 30.0739 41.6561 30.0739 37.5366C30.0739 33.4178 33.4178 30.0736 37.537 30.0736ZM40.3715 36.4297C41.0026 37.1161 41.3901 38.0351 41.3901 39.0428C41.3901 41.1796 39.6629 42.896 37.5369 42.896C35.4109 42.896 33.6837 41.1796 33.6837 39.0428C33.6837 38.0351 34.0711 37.1161 34.7019 36.4297V35.012C34.7019 33.4507 35.9753 32.1776 37.5369 32.1776C39.0981 32.1776 40.3714 33.4507 40.3714 35.012L40.3715 36.4297ZM37.537 37.6921C37.9355 37.6921 38.2568 38.013 38.2568 38.4116C38.2568 38.5778 38.2015 38.7217 38.102 38.8433V40.4267C38.102 40.737 37.8471 40.9918 37.537 40.9918C37.2268 40.9918 36.9723 40.737 36.9723 40.4267V38.8433C36.8839 38.7217 36.8281 38.5778 36.8281 38.4116C36.8281 38.013 37.1381 37.6921 37.537 37.6921ZM38.8992 35.4331V35.012C38.8992 34.2703 38.279 33.6503 37.537 33.6503C36.7949 33.6503 36.1861 34.2703 36.1861 35.012V35.4331C36.6068 35.2781 37.0606 35.1891 37.537 35.1891C38.013 35.1891 38.478 35.2782 38.8992 35.4331ZM6.0237 10.8179C6.00156 10.8292 5.96853 10.8401 5.95746 10.8513C5.93514 10.8734 5.92425 10.9065 5.92425 10.9509C5.92425 10.9843 5.93514 11.0173 5.95746 11.0394C5.97942 11.0615 6.01281 11.0725 6.04584 11.0725C6.07905 11.0725 6.11226 11.0615 6.13422 11.0394C6.15636 11.0173 6.16761 10.9843 6.16761 10.9509C6.16761 10.9065 6.15636 10.8846 6.13422 10.8513C6.11226 10.8292 6.07905 10.8179 6.04584 10.8179H6.0237ZM5.90202 7.62915H10.5304L10.9623 5.53637H5.56983L5.90202 7.62915ZM4.36275 5.10455C4.35186 5.08259 4.35186 5.0492 4.34079 5.02715L4.19679 4.12994L3.1338 3.83078C2.83446 3.75374 2.65761 3.4435 2.74599 3.14452C2.8233 2.84572 3.1338 2.66833 3.4326 2.75689L4.82778 3.14452C5.03838 3.18871 5.21523 3.36601 5.24862 3.59848L5.38137 4.41785H11.6485C11.6819 4.41785 11.7262 4.41785 11.7594 4.42901C12.0696 4.48427 12.2577 4.78343 12.2026 5.08259L11.5488 8.2605C11.5156 8.53689 11.2723 8.75866 10.9844 8.75866H6.09012L6.10119 8.83606H10.6407C10.9511 8.83606 11.2058 9.09049 11.2058 9.40063C11.2058 9.65542 11.0397 9.86566 10.7962 9.93208C10.8516 9.97627 10.8956 10.0204 10.94 10.0652C11.1722 10.2866 11.3166 10.5965 11.3166 10.9509C11.3166 11.2942 11.1722 11.6044 10.94 11.8255C10.7184 12.0584 10.4087 12.2022 10.0652 12.2022C9.71073 12.2022 9.40086 12.0584 9.17955 11.8255C8.94681 11.6044 8.81388 11.2943 8.81388 10.9509C8.81388 10.6076 8.94681 10.2974 9.16794 10.0652C9.21258 10.0321 9.24579 9.99832 9.29007 9.95422H6.80994C6.85404 9.98779 6.89832 10.0204 6.93162 10.0652C7.15329 10.2866 7.29711 10.5965 7.29711 10.9509C7.29711 11.2942 7.15329 11.6044 6.93162 11.8255C6.69924 12.0584 6.38919 12.2022 6.04584 12.2022C5.70267 12.2022 5.39244 12.0584 5.16006 11.8255C4.93839 11.6044 4.79475 11.2943 4.79475 10.9509C4.79475 10.6076 4.9275 10.2974 5.16006 10.0652C5.21523 10.0098 5.29281 9.94333 5.3703 9.89914C5.20434 9.81013 5.08275 9.64426 5.06043 9.44464L4.36275 5.10455ZM10.0433 10.8179C10.0101 10.8292 9.98775 10.8401 9.96543 10.8513C9.94347 10.8734 9.93222 10.9065 9.93222 10.9509C9.93222 10.9843 9.94347 11.0173 9.97686 11.0394C9.99918 11.0615 10.0213 11.0725 10.0652 11.0725C10.0986 11.0725 10.1318 11.0615 10.1538 11.0394C10.1759 11.0173 10.1872 10.9843 10.1872 10.9509C10.1872 10.9065 10.1759 10.8846 10.1538 10.8513C10.1318 10.8292 10.0986 10.8179 10.0652 10.8179H10.0433ZM21.924 12.5787C24.5375 12.5787 26.7521 14.2507 27.5715 16.5757C28.0254 16.4541 28.5125 16.3987 29.0001 16.3987C31.4357 16.3987 33.5064 17.9271 34.2925 20.086H37.2933V17.5949L37.0607 17.8163C36.8393 18.0375 36.4851 18.0264 36.2747 17.805C36.0536 17.5836 36.0646 17.2293 36.2858 17.0192L37.4375 15.8785C37.5482 15.7679 37.6924 15.69 37.8581 15.69C38.0132 15.69 38.1573 15.7564 38.2681 15.8674L39.508 16.997C39.7408 17.2071 39.7629 17.5614 39.5525 17.7942C39.3415 18.0264 38.9879 18.0375 38.7552 17.827L38.423 17.5283V20.6505C38.423 20.9607 38.1685 21.2155 37.8582 21.2155H36.1088H34.5807H30.3507C30.0296 21.2155 29.7859 21.4593 29.7859 21.769C29.7859 22.0791 30.0296 22.3336 30.3507 22.3336H34.6359C34.6137 22.8433 34.514 23.3303 34.3701 23.7954H37.858C38.1682 23.7954 38.4227 24.0502 38.4227 24.3599V27.4827L38.7549 27.1724C38.9876 26.9623 39.3413 26.9843 39.5522 27.2167C39.7626 27.4385 39.7405 27.7927 39.5078 28.0028L38.2678 29.1436C38.1571 29.243 38.0129 29.3095 37.8579 29.3095C37.6921 29.3095 37.5369 29.2431 37.4372 29.1214L36.2855 27.9916C36.0644 27.7705 36.0533 27.416 36.2744 27.1947C36.4848 26.9734 36.839 26.9734 37.0605 27.1836L37.293 27.4161V24.9248H36.1085H33.8495H30.3507C30.0296 24.9248 29.7859 25.1683 29.7859 25.4784C29.7859 25.7995 30.0296 26.043 30.3507 26.043H32.9749C31.9563 27.0617 30.5499 27.6817 29 27.6817C23.7514 27.6817 19.8093 27.6817 14.9707 27.6817C13.553 27.6817 12.2909 27.0506 11.4493 26.043H14.5831C14.9038 26.043 15.1474 25.7995 15.1474 25.4784C15.1474 25.1683 14.9038 24.9248 14.5831 24.9248H10.7514H8.82522H7.64037V27.4161L7.87257 27.1836C8.09424 26.9734 8.44875 26.9734 8.65899 27.1947C8.88048 27.4161 8.88048 27.7705 8.64792 27.9916L7.49655 29.1214C7.39656 29.2431 7.24185 29.3095 7.07535 29.3095C6.92046 29.3095 6.77673 29.2431 6.66576 29.1436L5.42601 28.0028C5.19309 27.7927 5.1822 27.4384 5.38137 27.2167C5.59197 26.9843 5.94612 26.9623 6.1785 27.1724L6.51069 27.4827V24.3599C6.51069 24.0502 6.76557 23.7954 7.07526 23.7954H10.4197C10.3866 23.5627 10.3645 23.3194 10.3645 23.0755C10.3645 22.8209 10.3866 22.5773 10.4197 22.3336H14.5831C14.9038 22.3336 15.1474 22.0791 15.1474 21.769C15.1474 21.4593 14.9038 21.2155 14.5831 21.2155H10.7627H8.82522H7.07535C6.76566 21.2155 6.51078 20.9607 6.51078 20.6505V17.5283L6.17859 17.827C5.94621 18.0375 5.59197 18.0264 5.38146 17.7942C5.18229 17.5614 5.19318 17.2071 5.4261 16.997L6.67728 15.8674C6.77673 15.7565 6.92055 15.69 7.07544 15.69C7.24194 15.69 7.39656 15.7678 7.49664 15.8785L8.64801 17.0192C8.88057 17.2294 8.88057 17.5836 8.65908 17.805C8.44884 18.0264 8.09433 18.0375 7.87266 17.8163L7.64046 17.5949V20.086H11.4714C12.3133 19.1004 13.5643 18.4693 14.9709 18.4693C15.3028 18.4693 15.6239 18.5028 15.9448 18.5692C15.9448 15.2582 18.6244 12.5787 21.924 12.5787ZM21.9467 25.1018C21.9467 24.7919 22.1901 24.5485 22.5002 24.5485C22.8102 24.5485 23.0646 24.7919 23.0646 25.1018V25.1133C23.0646 25.4233 22.8102 25.6776 22.5002 25.6776C22.1901 25.6776 21.9467 25.4234 21.9467 25.1133V25.1018ZM21.271 23.607C21.0275 23.8065 20.6729 23.7733 20.4849 23.5297C20.2857 23.2864 20.3186 22.9429 20.5624 22.7435C20.8283 22.5223 21.138 22.3451 21.4701 22.2231C21.7914 22.1013 22.1459 22.0461 22.5002 22.0461C22.8655 22.0461 23.22 22.1013 23.5409 22.2231C23.5519 22.2231 23.5741 22.2342 23.5849 22.2453C23.9061 22.3558 24.1941 22.5333 24.449 22.7435C24.6926 22.943 24.7258 23.2864 24.5264 23.5297C24.3269 23.7733 23.9726 23.8065 23.7404 23.607C23.5741 23.4743 23.3971 23.3636 23.198 23.2974C23.1865 23.2864 23.1755 23.2864 23.1646 23.2753C22.9541 23.2089 22.7327 23.1642 22.5003 23.1642C22.2786 23.1642 22.0573 23.2089 21.8467 23.2753C21.6365 23.3527 21.437 23.4634 21.271 23.607ZM19.9867 21.4816C19.7318 21.6586 19.3885 21.5922 19.2115 21.3373C19.0341 21.0825 19.1009 20.7285 19.3551 20.5512C19.8094 20.241 20.3077 19.9865 20.8503 19.8205C21.3704 19.6541 21.9353 19.5659 22.5002 19.5659C23.0758 19.5659 23.6296 19.6541 24.1609 19.8205C24.6925 19.9865 25.2017 20.241 25.6556 20.5512C25.9105 20.7286 25.9767 21.0825 25.7998 21.3373C25.6224 21.5921 25.2795 21.6585 25.0248 21.4816C24.6593 21.2268 24.2607 21.0271 23.8289 20.8945C23.4081 20.7614 22.9651 20.695 22.5002 20.695C22.0461 20.695 21.6033 20.7613 21.1825 20.8945C20.7508 21.0271 20.3522 21.2268 19.9867 21.4816ZM18.7355 19.344C18.4806 19.51 18.1262 19.4331 17.9603 19.1782C17.794 18.9235 17.8607 18.5692 18.1263 18.4031C18.7577 17.9823 19.4665 17.6501 20.219 17.4288C20.95 17.2071 21.7139 17.0966 22.5003 17.0966C23.2976 17.0966 24.0616 17.2072 24.7921 17.4288C25.545 17.6501 26.2541 17.9823 26.885 18.4031C27.1507 18.5693 27.2172 18.9235 27.0513 19.1782C26.885 19.4331 26.5307 19.51 26.2761 19.344C25.7226 18.979 25.1133 18.6906 24.4712 18.5028C23.851 18.3255 23.1866 18.2258 22.5004 18.2258C21.8136 18.2258 21.1604 18.3255 20.5404 18.5028C19.8983 18.6906 19.289 18.979 18.7355 19.344ZM12.4794 38.0793V45H7.37442V39.9951H4.07475V45H2.4912V38.0793L7.48494 34.9349L12.4794 38.0793ZM7.48494 35.8207C8.14959 35.8207 8.68113 36.3631 8.68113 37.0166C8.68113 37.681 8.14959 38.2123 7.48494 38.2123C6.8319 38.2123 6.30072 37.681 6.30072 37.0166C6.30072 36.3631 6.8319 35.8207 7.48494 35.8207Z" fill="black"/>
</svg>
