<svg width="45" height="45" viewBox="0 0 45 45" fill="none" xmlns="http://www.w3.org/2000/svg">
<path d="M20.0951 35.362C17.6834 35.3682 15.3046 34.8031 13.1534 33.7129C11.0021 32.6228 9.13972 31.0386 7.71861 29.0901C6.29749 27.1416 5.3581 24.8843 4.97735 22.5028C4.5966 20.1214 4.78532 17.6837 5.52806 15.3892C6.2708 13.0947 7.54644 11.0088 9.25051 9.3023C10.9546 7.59575 13.0386 6.3171 15.332 5.57103C17.6254 4.82497 20.0629 4.63271 22.4448 5.01001C24.8268 5.38731 27.0856 6.32343 29.0361 7.74172L32.4719 4.30355C29.9533 2.32837 26.9992 0.98384 23.8556 0.382051C20.712 -0.219738 17.4701 -0.0613509 14.4001 0.844009C11.3302 1.74937 8.52113 3.37547 6.20715 5.58675C3.89316 7.79803 2.1413 10.5304 1.0976 13.5561C0.0538961 16.5819 -0.251403 19.8132 0.207153 22.9809C0.665708 26.1485 1.87483 29.1607 3.73372 31.7662C5.59262 34.3717 8.04742 36.4952 10.8935 37.9595C13.7396 39.4238 16.8944 40.1865 20.0951 40.1841C20.6754 40.1841 21.25 40.1512 21.8198 40.1038C21.3034 38.5647 21.0058 36.9606 20.9357 35.3387C20.6504 35.354 20.3724 35.362 20.0951 35.362Z" fill="black"/>
<path d="M4.92795 38.9828C4.82436 39.1693 4.79823 39.389 4.85522 39.5945C4.91221 39.8001 5.04774 39.975 5.23255 40.0815C5.41912 40.1799 5.63614 40.2038 5.83967 40.1483C6.04319 40.0928 6.21803 39.962 6.32878 39.7825L7.49412 37.7451C7.05209 37.4285 6.62052 37.1022 6.2034 36.751L4.92795 38.9828Z" fill="black"/>
<path d="M39.9517 0.235309C39.801 0.0846405 39.5966 0 39.3835 0C39.1704 0 38.966 0.0846405 38.8153 0.235309L19.5268 19.5238C19.3761 19.6745 19.2915 19.8789 19.2915 20.092C19.2915 20.3051 19.3761 20.5095 19.5268 20.6602C19.68 20.8061 19.8835 20.8875 20.095 20.8875C20.3066 20.8875 20.51 20.8061 20.6632 20.6602L39.9517 1.37172C40.1024 1.22101 40.187 1.01662 40.187 0.803515C40.187 0.590406 40.1024 0.386022 39.9517 0.235309Z" fill="black"/>
<path d="M23.2116 13.5662C21.6719 12.8308 19.9218 12.6633 18.2706 13.0935C16.6194 13.5236 15.1735 14.5236 14.1883 15.9168C13.2031 17.31 12.7422 19.0066 12.8869 20.7067C13.0317 22.4069 13.7729 24.0011 14.9794 25.2077C16.1859 26.4142 17.7802 27.1554 19.4803 27.3002C21.1805 27.4449 22.8771 26.984 24.2703 25.9988C25.6634 25.0136 26.6635 23.5677 27.0936 21.9165C27.5238 20.2652 27.3563 18.5151 26.6209 16.9755L21.7987 21.7976C21.344 22.2368 20.735 22.4798 20.1028 22.4743C19.4706 22.4688 18.8659 22.2152 18.4189 21.7682C17.9718 21.3212 17.7183 20.7165 17.7128 20.0843C17.7073 19.4521 17.9503 18.8431 18.3895 18.3883L23.2116 13.5662Z" fill="black"/>
<path d="M38.1733 33.1793C36.836 33.4548 35.5353 33.8847 34.2972 34.4604C33.0451 35.2113 32.1067 36.3895 31.6547 37.7778C31.2028 39.1661 31.2678 40.6709 31.8379 42.015C32.1633 42.6607 32.6144 43.2348 33.1648 43.7037C33.7152 44.1726 34.3536 44.5269 35.0428 44.7456C35.7319 44.9644 36.4578 45.0432 37.1779 44.9776C37.8979 44.912 38.5976 44.7031 39.2358 44.3634C44.8865 41.1639 45.1421 33.4662 44.9725 30.1855C42.9746 31.7069 40.6445 32.7329 38.1733 33.1793Z" fill="black"/>
<path d="M30.3864 42.7028C29.9486 41.7061 29.7301 40.627 29.7457 39.5386C29.7612 38.4501 30.0104 37.3777 30.4764 36.3939C29.6984 36.1277 28.9058 35.9066 28.1023 35.7316C26.0981 35.3793 24.1946 34.595 22.5239 33.4331C22.4098 36.1881 22.7474 42.0229 27.2946 44.4983C27.9612 44.8375 28.7004 45.0091 29.4482 44.9982C30.1961 44.9873 30.93 44.7942 31.5863 44.4356C31.0974 43.9272 30.6926 43.3442 30.3872 42.7085L30.3864 42.7028Z" fill="black"/>
<path d="M24.7365 32.9269C26.7077 32.2203 28.4895 31.0686 29.9431 29.5612C31.3967 28.0539 32.4831 26.2316 33.1177 24.236C33.7524 22.2404 33.9182 20.1253 33.6022 18.0552C33.2863 15.9851 32.4972 14.0158 31.2962 12.3003L27.8154 15.7811C28.8547 17.6432 29.1855 19.8185 28.7467 21.9054C28.3078 23.9923 27.129 25.8501 25.4278 27.136C23.7265 28.4219 21.6176 29.0491 19.4901 28.9019C17.3626 28.7547 15.3602 27.843 13.8522 26.335C12.3443 24.8271 11.4326 22.8246 11.2854 20.6972C11.1381 18.5697 11.7653 16.4607 13.0512 14.7595C14.3371 13.0582 16.1949 11.8794 18.2819 11.4406C20.3688 11.0018 22.544 11.3325 24.4062 12.3718L27.8909 8.89107C26.1316 7.66666 24.1088 6.8736 21.9861 6.57606C19.8634 6.27851 17.7005 6.48485 15.6723 7.17836C13.6441 7.87187 11.8077 9.03308 10.3116 10.568C8.81554 12.103 7.7018 13.9686 7.06052 16.0139C6.41924 18.0591 6.26845 20.2267 6.62032 22.341C6.9722 24.4554 7.81687 26.4572 9.08599 28.1846C10.3551 29.9119 12.013 31.3162 13.9256 32.2839C15.8382 33.2516 17.9517 33.7555 20.0952 33.7547C20.3628 33.7547 20.6337 33.7451 20.9093 33.7282C20.9222 33.1962 20.9511 32.7381 20.9817 32.4029C20.9987 32.1877 21.0761 31.9816 21.2051 31.8085C21.334 31.6353 21.5093 31.502 21.7106 31.424C21.907 31.3471 22.1213 31.3273 22.3285 31.367C22.5357 31.4067 22.7274 31.5042 22.8816 31.6483C23.4427 32.152 24.0661 32.5817 24.7365 32.9269Z" fill="black"/>
<path d="M26.876 33.7588C27.4024 33.9091 27.9344 34.0393 28.4753 34.1687C29.4351 34.3763 30.3789 34.6522 31.2995 34.9941C31.8928 34.1726 32.6686 33.4999 33.5659 33.0291C34.4229 32.6065 35.32 32.2705 36.2437 32.026C38.8646 28.4979 40.2497 24.2043 40.1846 19.8097C40.1195 15.415 38.6079 11.1644 35.8837 7.71533L32.4455 11.1527C33.7524 12.9453 34.6514 15.0019 35.0795 17.1786C35.5076 19.3552 35.4545 21.5992 34.9238 23.7531C34.3932 25.9071 33.3979 27.9189 32.0076 29.6476C30.6174 31.3763 28.866 32.78 26.876 33.7604V33.7588Z" fill="black"/>
</svg>
