<svg width="45" height="45" viewBox="0 0 45 45" fill="none" xmlns="http://www.w3.org/2000/svg">
<path fill-rule="evenodd" clip-rule="evenodd" d="M22.4995 3.06424C11.7828 3.06424 3.06417 11.783 3.06417 22.5C3.06417 33.217 11.7828 41.9358 22.4995 41.9358C33.2162 41.9358 41.9358 33.217 41.9358 22.5C41.9358 11.783 33.2162 3.06424 22.4995 3.06424ZM14.2824 17.5076H11.8675L16.1721 11.252H17.1525L14.2824 17.5076ZM18.1102 17.5076H15.5839L18.453 11.252H19.5447L18.1102 17.5076ZM21.9083 17.5076H19.323L20.7576 11.252H21.9083V17.5076ZM25.676 17.5076H23.0917V11.252H24.2424L25.676 17.5076ZM29.4161 17.5076H26.8898L25.4553 11.252H26.547L29.4161 17.5076ZM30.7166 17.5076L27.8465 11.252H28.8269L33.1315 17.5076H30.7166ZM30.9284 18.6899H33.6645V20.0979C33.6645 20.8526 33.0507 21.4664 32.296 21.4664C31.5423 21.4664 30.9284 20.8526 30.9284 20.0989C30.9284 20.0979 30.9284 20.0979 30.9284 20.0979V18.6899ZM27.0091 18.6899H29.7461V20.0979V20.0989C29.7451 20.8526 29.1323 21.4664 28.3776 21.4664C27.6229 21.4664 27.0091 20.8526 27.0091 20.0979V18.6899ZM23.0917 18.6899H25.8277V20.0979C25.8277 20.8526 25.2139 21.4664 24.4602 21.4664C23.7055 21.4664 23.0917 20.8526 23.0917 20.0979V18.6899ZM19.1723 20.0979V18.6899H21.9083V20.0979C21.9083 20.8526 21.2945 21.4664 20.5398 21.4664C19.7871 21.4664 19.1723 20.8526 19.1723 20.0979ZM15.2529 20.0989C15.2529 20.0979 15.2529 20.0979 15.2529 20.0989V18.6899H17.99V20.0979C17.99 20.8526 17.3761 21.4664 16.6214 21.4664C15.8667 21.4664 15.2539 20.8526 15.2529 20.0989ZM12.703 21.4664C11.9483 21.4664 11.3345 20.8526 11.3345 20.0979V18.6899H14.0706V20.0979V20.0989C14.0706 20.8526 13.4567 21.4664 12.703 21.4664ZM26.01 25.8372H28.8259V28.6541H26.01V25.8372ZM20.5891 33.0229H16.1731V26.0776H20.5891V33.0229ZM24.8277 29.2453V25.246C24.8277 24.9199 25.0917 24.6548 25.4188 24.6548H29.4171C29.7442 24.6548 30.0082 24.9199 30.0082 25.246V29.2453C30.0082 29.5714 29.7442 29.8364 29.4171 29.8364H25.4188C25.0917 29.8364 24.8277 29.5714 24.8277 29.2453ZM28.3776 22.6488C29.1648 22.6488 29.8683 22.2901 30.3373 21.7285C30.8053 22.2901 31.5098 22.6488 32.296 22.6488C32.3127 22.6488 32.3285 22.6478 32.3453 22.6468V33.0229H21.7724V25.4864C21.7724 25.1593 21.5073 24.8952 21.1812 24.8952H15.5829C15.2558 24.8952 14.9918 25.1593 14.9918 25.4864V33.0229H12.6547V22.6468C12.6715 22.6478 12.6873 22.6488 12.704 22.6488C13.4902 22.6488 14.1947 22.2901 14.6627 21.7285C15.1317 22.2901 15.8352 22.6488 16.6224 22.6488C17.4086 22.6488 18.1131 22.2901 18.5821 21.7285C19.0501 22.2901 19.7546 22.6488 20.5408 22.6488C21.328 22.6488 22.0325 22.2901 22.5005 21.7285C22.9685 22.2901 23.673 22.6488 24.4602 22.6488C25.2464 22.6488 25.9509 22.2901 26.4189 21.7285C26.8869 22.2901 27.5914 22.6488 28.3776 22.6488ZM38.2273 9.18287C37.4903 8.31483 36.6844 7.50887 35.8163 6.77286L40.4983 2.08979C40.6097 1.97846 40.6717 1.82869 40.6717 1.67203C40.6717 1.51537 40.6097 1.36462 40.4983 1.25427L39.7318 0.486731L44.999 0L44.5123 5.26734L43.7458 4.50079C43.6344 4.38945 43.4837 4.32738 43.327 4.32738C43.1704 4.32738 43.0206 4.38945 42.9093 4.50079L38.2273 9.18287ZM35.8173 38.2281C36.6854 37.4911 37.4913 36.6852 38.2283 35.8171L42.9103 40.4992C43.0216 40.6105 43.1714 40.6726 43.328 40.6726C43.4847 40.6726 43.6354 40.6105 43.7467 40.4992L44.5133 39.7327L45 45L39.7328 44.5133L40.4993 43.7467C40.7299 43.5152 40.7299 43.1408 40.4993 42.9102L35.8173 38.2281ZM6.7737 35.8171C7.50969 36.6852 8.31564 37.4911 9.18365 38.2281L4.50168 42.9102C4.39034 43.0215 4.32827 43.1713 4.32827 43.328C4.32827 43.4846 4.39034 43.6354 4.50168 43.7457L5.26821 44.5133L0.000985287 45L0.487706 39.7327L1.25424 40.4992C1.36558 40.6105 1.51632 40.6726 1.67298 40.6726C1.82964 40.6726 1.9794 40.6105 2.09073 40.4992L6.7737 35.8171ZM9.18267 6.77286C8.31465 7.50887 7.5087 8.31483 6.77271 9.18287L2.08975 4.50079C1.97841 4.38945 1.82865 4.32738 1.67199 4.32738C1.51534 4.32738 1.36459 4.38945 1.25326 4.50079L0.486721 5.26734L0 0L5.26723 0.486731L4.50069 1.25328C4.27014 1.48483 4.27014 1.85924 4.50069 2.08979L9.18267 6.77286ZM10.2566 17.7627L15.3751 10.3258C15.4854 10.1652 15.6667 10.0696 15.8618 10.0696H29.1372C29.3323 10.0696 29.5136 10.1652 29.624 10.3258L34.7424 17.7627C34.8114 17.8632 34.8459 17.9805 34.8459 18.0987H34.8468V20.0979C34.8468 21.0575 34.3138 21.896 33.5276 22.3305V33.614C33.5276 33.9402 33.2625 34.2052 32.9364 34.2052H12.0626C11.7365 34.2052 11.4714 33.9402 11.4714 33.614V22.3305C10.6852 21.896 10.1522 21.0585 10.1522 20.0979V18.0987H10.1532C10.1532 17.9805 10.1886 17.8632 10.2566 17.7627Z" fill="black"/>
</svg>
