<svg width="20" height="19" viewBox="0 0 20 19" fill="none" xmlns="http://www.w3.org/2000/svg">
<path d="M5.47949 1.44244C6.60857 1.44255 7.69219 1.87316 8.51172 2.64166L8.67188 2.79987L8.67383 2.80182L9.6416 3.79791L9.99902 4.16608L10.3584 3.79791L11.3252 2.80475L11.3281 2.8028C12.1633 1.93468 13.3159 1.44443 14.5205 1.4444C15.6499 1.4444 16.7335 1.87537 17.5527 2.64459L17.7129 2.8028L17.7148 2.80377C18.5187 3.63386 18.9881 4.72795 19.04 5.87701L19.0449 6.10748V6.11139C19.0492 7.34285 18.5724 8.52747 17.7158 9.41217L10 17.3399L2.28418 9.41119C0.565475 7.62198 0.512234 4.82686 2.125 2.97565L2.28613 2.79987C3.12182 1.93243 4.27499 1.44244 5.47949 1.44244Z" stroke="#010101"/>
</svg>
