<svg width="25" height="25" viewBox="0 0 25 25" fill="none" xmlns="http://www.w3.org/2000/svg">
<path d="M5.67097 5.918C5.36394 5.61113 4.86637 5.61113 4.55934 5.918C3.40213 7.07522 2.76465 8.61398 2.76465 10.2507C2.76465 11.8874 3.40197 13.426 4.55934 14.5832C4.71294 14.7368 4.91401 14.8135 5.11523 14.8135C5.31646 14.8135 5.51753 14.7368 5.67112 14.5832C5.97815 14.2763 5.97815 13.7786 5.67112 13.4717C4.81072 12.6113 4.33689 11.4675 4.33689 10.2508C4.33689 9.03404 4.81072 7.89019 5.67112 7.02994C5.97799 6.72276 5.97799 6.22503 5.67097 5.918Z" fill="#FFDA9D"/>
<path d="M24.7697 23.6582L18.0347 16.9232C21.4894 12.8985 21.3139 6.81048 17.5024 2.99895C13.504 -0.999651 6.99756 -0.999651 2.99895 2.99895C-0.999651 6.99771 -0.999651 13.504 2.99895 17.5024C4.99833 19.5018 7.62451 20.5015 10.2507 20.5015C12.631 20.5015 15.0097 19.6772 16.9232 18.0347L23.6582 24.7697C23.8117 24.9233 24.0129 25 24.214 25C24.415 25 24.6164 24.9233 24.7697 24.7697C25.0769 24.4628 25.0769 23.9651 24.7697 23.6582ZM4.11058 16.3909C0.724929 13.0053 0.724929 7.49622 4.11058 4.11058C5.80371 2.41744 8.0268 1.57134 10.2507 1.57134C12.4741 1.57134 14.6981 2.41791 16.3909 4.11058C19.7354 7.45503 19.7738 12.8698 16.5109 16.2647C16.4622 16.2954 16.4155 16.3306 16.3732 16.373C16.3307 16.4155 16.2955 16.462 16.2649 16.5107C14.5881 18.1223 12.4206 18.9302 10.2508 18.93C8.02728 18.9299 5.80309 18.0834 4.11058 16.3909Z" fill="#FFDA9D"/>
</svg>
