<svg width="42" height="71" viewBox="0 0 42 71" fill="none" xmlns="http://www.w3.org/2000/svg">
<path d="M36.969 65.7943C37.3319 66.18 39.42 66.4889 40.0876 66.7835C41.1764 67.2646 41.4597 68.0418 41.2448 69.2046C40.7893 71.667 35.2809 71.6428 35.0674 68.8445L36.6986 68.6125C37.0615 69.5277 37.759 69.9078 38.7425 69.7185C39.3332 69.6046 39.9908 68.8872 39.3859 68.4275C39.0144 68.1442 37.3433 67.9037 36.7242 67.6532C34.2504 66.6582 34.9535 63.8258 37.5497 63.5539C38.8791 63.4144 40.5103 63.6507 40.9871 65.0712C41.0284 65.195 40.9629 65.3345 40.9629 65.3345L39.5809 65.5993C38.9617 64.7453 37.7034 64.5332 36.8765 65.2178C36.7825 65.3915 36.8437 65.6619 36.969 65.7943Z" fill="#FFDA9D"/>
<path d="M14.6338 27.1757L13.0767 18.6042C20.36 12.8069 31.2245 16.7396 35.2312 24.5382C37.8217 29.5812 37.0062 35.5223 37.53 40.9922V59.0233C34.1751 59.5172 31.4366 57.0335 30.5213 53.9661C29.979 52.1485 30.1641 50.2839 30.1014 48.4193C30.0047 45.5199 29.9079 42.5622 29.8481 39.6614C29.7271 33.8256 30.9483 27.0818 24.25 24.4372C20.3358 22.8928 17.3297 24.2692 14.6338 27.1743" fill="#FFDA9D"/>
<path d="M6.89924 16.4593C9.09833 16.7553 11.3956 18.9217 12.1329 20.967C12.9357 23.1974 12.7891 26.9096 12.8005 29.3008C12.819 33.541 12.9286 37.4666 16.7859 40.0585C21.0318 42.9109 25.2976 41.3267 28.3905 37.7684C28.2325 40.5297 28.7634 43.4959 28.5186 46.2359C28.3905 47.6664 27.4084 48.1062 26.1957 48.5389C19.0263 51.0953 11.1167 47.5127 7.50701 41.0577C4.54643 35.7657 5.27661 27.802 5.2638 21.8823C5.25953 20.0717 5.06168 18.2712 5.1357 16.4578C5.69366 16.5105 6.35979 16.3852 6.90066 16.4578" fill="#FFDA9D"/>
<path d="M7.41729 0.0522072C10.4932 -0.282282 14.3092 1.01724 16.5225 3.1836C17.0306 3.68177 17.432 4.08458 17.0975 4.86031C16.457 6.35057 14.7419 4.19276 14.0402 3.71735C10.8049 1.53108 6.51346 1.49122 3.26962 3.69458C2.56648 4.17283 1.67831 5.38553 0.933892 5.38838C-0.250342 5.39265 -0.190561 4.16429 0.459914 3.44265C2.01564 1.71754 5.12284 0.301295 7.41729 0.0522072Z" fill="#FFDA9D"/>
<path d="M7.41752 3.58355C9.68778 3.29888 11.6506 3.81413 13.5024 5.10796C14.1343 5.5492 15.2901 6.32778 14.8489 7.23446C14.1244 8.72329 12.8419 7.00103 12.0904 6.51851C9.87851 5.10227 7.17555 5.18625 5.02628 6.66939C4.72737 6.87577 3.84631 7.74545 3.70967 7.78672C2.66066 8.10129 2.00734 7.15333 2.52686 6.23953C3.20011 5.05245 6.0881 3.74866 7.41894 3.58212" fill="#FFDA9D"/>
<path d="M10.9388 12.7016C10.9388 14.0168 9.87273 15.0829 8.55755 15.0829C7.24236 15.0829 6.17627 14.0168 6.17627 12.7016C6.17627 11.3864 7.24236 10.3203 8.55755 10.3203C9.87273 10.3203 10.9388 11.3864 10.9388 12.7016Z" fill="#FFDA9D"/>
<path d="M8.02935 6.99535C8.7453 6.91137 9.31464 6.97115 10.005 7.14337C11.0042 7.39389 13.4452 8.64929 12.4218 9.92746C11.6988 10.8313 11.0568 9.86911 10.5316 9.53889C9.55803 8.924 8.13752 8.78735 7.11697 9.37093C6.80384 9.55027 6.29143 10.1438 6.02099 10.2235C4.96059 10.5338 4.24748 9.39655 4.96059 8.55392C5.59113 7.80808 7.05719 7.10921 8.02935 6.99535Z" fill="#FFDA9D"/>
<path d="M15.4736 63.8314C14.4915 64.1118 14.3961 64.6186 14.1015 65.5124C13.71 65.289 13.414 65.1836 13.1236 64.963H13.1279V63.7688H11.3245V64.963H11.3401L9.5339 66.0049L9.28766 65.8711L9.31471 63.8628L7.73193 63.84L7.7604 70.6607L9.34318 70.6821L9.38018 67.9421L12.2454 66.244L14.0758 67.3386C14.0089 70.4444 14.8587 70.8956 17.8036 70.675C18.8697 70.5952 19.6113 70.3177 19.8262 69.1719C20.0241 68.1172 20.081 65.9352 19.7664 64.926C19.2782 63.3575 16.7617 63.4642 15.4722 63.8314M18.0741 68.8502C17.9061 69.1619 16.3817 69.2715 16.0984 69.0367C15.7383 68.7378 15.754 65.9793 15.9589 65.5651C16.181 65.1153 17.7538 65.0313 18.0726 65.4968C18.3388 65.8868 18.3345 68.3691 18.0755 68.8516" fill="#FFDA9D"/>
<path d="M29.2913 63.7717H33.94V65.1751H30.8741V66.4746H34.0026V67.7343L30.867 67.713V69.1306L34.0852 69.1534V70.6579H29.2017L29.2913 63.7717Z" fill="#FFDA9D"/>
<path d="M20.6433 63.7745H23.0645L24.4352 68.5897H24.5946L25.803 63.682H28.3167V70.638H26.7609V65.7558H26.462L25.3191 70.7234H23.5883L22.4183 65.7558H22.2005V70.638H20.5522L20.6433 63.7745Z" fill="#FFDA9D"/>
</svg>
