<svg width="66" height="56" viewBox="0 0 66 56" fill="none" xmlns="http://www.w3.org/2000/svg">
<path fill-rule="evenodd" clip-rule="evenodd" d="M29.636 0.47318L43.0739 10.8187C41.8725 12.7079 41.1816 14.8668 41.073 17.1286L30.6569 9.11158C29.2201 8.00502 27.2855 8.00085 25.8444 9.10185L5.05596 24.9746C4.39605 25.4778 3.57399 25.6975 2.73924 25.5932C1.90448 25.489 1.1642 25.0733 0.652353 24.4227C0.141913 23.7721 -0.0808761 22.9617 0.0262882 22.1387C0.132042 21.3157 0.553649 20.5845 1.21215 20.0813L26.9005 0.466229C27.7198 -0.157949 28.8196 -0.155168 29.636 0.47318ZM26.8808 10.4197C27.7 9.79415 28.7985 9.79693 29.6163 10.4253L41.1477 19.3028C41.4932 22.2096 42.8102 24.9065 44.9464 27.0195C46.1126 28.1747 47.4563 29.0895 48.9172 29.7387L48.8763 50.1252L7.46151 50.0446L7.51086 25.2095L26.8808 10.4197ZM18.5375 31.803C18.5304 34.8933 20.0547 37.8071 22.614 39.5976C23.1399 39.966 23.4163 40.4956 23.4149 41.1309L23.4121 43.4205C23.4092 44.673 23.9042 45.8533 24.8066 46.7458C25.7076 47.6382 26.9034 48.1304 28.1738 48.1345H28.1837C30.8106 48.1345 32.9497 46.0298 32.9553 43.44L32.9596 41.1518C32.961 40.5165 33.2402 39.9868 33.7675 39.6212C36.3338 37.8391 37.8694 34.9323 37.875 31.842C37.8863 26.5858 33.5574 22.3027 28.226 22.2916C28.2189 22.2916 28.2133 22.2916 28.2063 22.2916C25.6315 22.2916 23.209 23.2772 21.3844 25.0705C19.5527 26.8666 18.5417 29.2577 18.5375 31.803ZM37.7678 38.2547L39.7236 39.3724C39.8575 39.4489 40.0042 39.485 40.148 39.485C40.4399 39.485 40.7233 39.3363 40.8798 39.0693C41.1139 38.6718 40.9771 38.1602 40.5724 37.9294L38.6167 36.8103C38.2134 36.5796 37.6959 36.7144 37.4604 37.1134C37.2264 37.5138 37.3646 38.0239 37.7678 38.2547ZM38.9058 31.8433C38.9043 32.3035 39.2822 32.6774 39.749 32.6788L42.0107 32.683H42.0121C42.4788 32.683 42.8567 32.3104 42.8581 31.8503C42.8581 31.3902 42.4802 31.0162 42.0135 31.0148L39.7532 31.0106C39.7518 31.0106 39.7518 31.0106 39.7518 31.0106C39.2851 31.0106 38.9058 31.3832 38.9058 31.8433ZM17.793 26.8332C17.9269 26.9097 18.0736 26.9458 18.2174 26.9458C18.5093 26.9458 18.7927 26.7957 18.9492 26.5302C19.1847 26.1312 19.0465 25.621 18.6418 25.3903L16.6875 24.2726C16.2828 24.0418 15.7653 24.1767 15.5299 24.5756C15.2958 24.9746 15.434 25.4848 15.8372 25.7156L17.793 26.8332ZM39.7546 24.3171L37.7946 25.4278C37.3885 25.6572 37.2489 26.1674 37.4816 26.5663C37.6381 26.8346 37.9229 26.9848 38.2162 26.9848C38.3601 26.9848 38.5039 26.9486 38.6378 26.8735L40.5978 25.7628C41.0025 25.5334 41.1421 25.0233 40.9094 24.6243C40.6782 24.2253 40.1593 24.0877 39.7546 24.3171ZM33.2655 21.5576C33.0315 21.9566 33.1696 22.4668 33.5729 22.6975C33.7069 22.774 33.8535 22.8101 33.9974 22.8101C34.2892 22.8101 34.5727 22.6614 34.7306 22.3945L35.8643 20.4663C36.0983 20.0674 35.9602 19.5572 35.5569 19.3264C35.1522 19.0956 34.6347 19.2319 34.4006 19.6295L33.2655 21.5576ZM13.553 31.7947C13.5515 32.2548 13.9294 32.6302 14.3976 32.6302L16.6579 32.6343H16.6593C17.126 32.6343 17.5039 32.2618 17.5053 31.803C17.5067 31.3429 17.1289 30.9675 16.6607 30.9675L14.4004 30.9634H14.399C13.9323 30.962 13.5544 31.3345 13.553 31.7947ZM15.8133 37.8822C15.4086 38.1115 15.269 38.6217 15.5016 39.0207C15.6582 39.289 15.943 39.4391 16.2363 39.4391C16.3787 39.4391 16.5239 39.403 16.6565 39.3279L18.6165 38.2172C19.0212 37.9878 19.1607 37.4776 18.9281 37.0786C18.6954 36.6797 18.1779 36.542 17.7732 36.7714L15.8133 37.8822ZM21.7186 22.3695C21.8751 22.6378 22.1599 22.7879 22.4532 22.7879C22.5956 22.7879 22.7409 22.7517 22.8734 22.6767C23.2795 22.4473 23.4191 21.9371 23.1865 21.5381L22.0598 19.6058C21.8258 19.2069 21.3097 19.0692 20.9036 19.2986C20.4989 19.528 20.3593 20.0382 20.592 20.4371L21.7186 22.3695ZM28.226 21.274H28.2288C28.6941 21.274 29.0734 20.9015 29.0748 20.4413L29.0791 18.2129C29.0791 17.7528 28.7012 17.3774 28.2345 17.3774H28.233C27.7663 17.3774 27.387 17.75 27.387 18.2101L27.3828 20.4385C27.3828 20.8987 27.7593 21.2726 28.226 21.274ZM28.2048 26.8819H28.2175C28.6829 26.8819 29.0622 26.5093 29.0636 26.0506C29.0636 25.5904 28.6857 25.2165 28.2189 25.2151C28.2147 25.2151 28.2091 25.2151 28.2048 25.2151C26.4197 25.2151 24.7403 25.8991 23.4755 27.1405C22.2065 28.386 21.5057 30.0445 21.5028 31.81C21.5014 32.2701 21.8793 32.6441 22.3461 32.6455H22.3489C22.8142 32.6455 23.1935 32.2729 23.1949 31.8128C23.1963 30.4935 23.7209 29.2535 24.6684 28.3221C25.6146 27.3935 26.8723 26.8819 28.2048 26.8819ZM28.2218 23.9584C32.6197 23.9667 36.19 27.5019 36.1815 31.8378C36.1759 34.3859 34.9097 36.7867 32.7918 38.2561C31.8273 38.9262 31.2886 39.9299 31.2675 41.0865L25.1055 41.0739C25.09 39.9159 24.5556 38.9109 23.594 38.238C21.4817 36.7603 20.2239 34.3553 20.2296 31.8058C20.2338 29.7053 21.0671 27.7313 22.5759 26.2494C24.0818 24.7702 26.0799 23.957 28.2048 23.957C28.2105 23.9584 28.2161 23.9584 28.2218 23.9584ZM31.2633 42.756L25.1041 42.7435L25.1027 43.4233C25.1013 44.2296 25.4214 44.9914 26.0037 45.5683C26.5861 46.1452 27.3574 46.4636 28.1766 46.465H28.1823C28.9987 46.465 29.7686 46.1494 30.3524 45.5766C30.9361 45.0025 31.259 44.2421 31.2618 43.4344L31.2633 42.756ZM42.7482 17.7375C42.7608 11.4248 47.9738 6.29791 54.3741 6.29791H54.398C60.8082 6.31043 66.0127 11.4623 66 17.782C65.9943 20.8347 64.7775 23.7082 62.5721 25.8726C60.3724 28.0329 57.4635 29.2215 54.3755 29.2215C54.367 29.2215 54.36 29.2215 54.3515 29.2215C47.9414 29.209 42.7355 24.0571 42.7482 17.7375ZM54.3656 25.4222H54.3698C55.5303 25.4222 56.4751 24.4936 56.4779 23.3481C56.4807 22.2012 55.536 21.2671 54.3741 21.2657C54.3727 21.2657 54.3712 21.2657 54.3698 21.2657C53.2094 21.2657 52.2632 22.1943 52.2618 23.3398C52.259 24.4853 53.2023 25.4195 54.3656 25.4222ZM56.6443 20.9167C56.8092 21.0808 57.0264 21.1642 57.2449 21.1642C57.4593 21.1642 57.675 21.0836 57.84 20.9223C58.1728 20.5984 58.1742 20.0701 57.8456 19.7435C56.9178 18.8218 55.6826 18.313 54.367 18.3116C54.3642 18.3116 54.3614 18.3116 54.3571 18.3116C53.0528 18.3116 51.8247 18.8093 50.8983 19.7157C50.5669 20.041 50.5641 20.5692 50.8941 20.8959C51.2226 21.2226 51.7584 21.2254 52.0898 20.9001C52.6975 20.3065 53.5027 19.9798 54.3571 19.9798H54.3642C55.2272 19.9784 56.0379 20.312 56.6443 20.9167ZM60.4556 18.3519C60.787 18.0266 60.7898 17.4984 60.4599 17.1717C58.8369 15.5619 56.6767 14.6736 54.3755 14.668C52.0771 14.6694 49.9211 15.5396 48.2925 17.1341C47.9611 17.4594 47.9597 17.9877 48.2897 18.313C48.6182 18.6397 49.154 18.6411 49.4854 18.3172C50.7939 17.0354 52.5269 16.3348 54.3712 16.3362C56.2198 16.339 57.957 17.0535 59.2599 18.3464C59.4249 18.5104 59.642 18.5924 59.8606 18.5924C60.0749 18.5938 60.2907 18.5132 60.4556 18.3519ZM63.0755 14.6041C60.7574 12.3061 57.6694 11.0356 54.3825 11.03C54.3741 11.03 54.3656 11.03 54.3571 11.03C51.0858 11.03 48.0077 12.2811 45.6881 14.5568C45.3568 14.8821 45.3554 15.409 45.6839 15.7357C46.0138 16.0623 46.5497 16.0637 46.881 15.7384C48.8819 13.7769 51.5356 12.6968 54.3571 12.6968H54.3783C57.2139 12.7023 59.8761 13.7978 61.8756 15.7787C62.0405 15.9428 62.2577 16.0248 62.4748 16.0248C62.6906 16.0248 62.9063 15.9442 63.0713 15.7815C63.4027 15.459 63.4055 14.9308 63.0755 14.6041ZM54.078 23.0534C54.0314 23.0993 53.9553 23.1966 53.9553 23.3426C53.9539 23.5692 54.14 23.7527 54.3698 23.754H54.3712C54.5193 23.754 54.618 23.679 54.6645 23.6331C54.7097 23.5886 54.7872 23.4913 54.7872 23.344C54.7872 23.1966 54.7111 23.0993 54.6645 23.0534C54.6194 23.0089 54.5207 22.9325 54.3712 22.9325C54.2218 22.9339 54.1217 23.0089 54.078 23.0534ZM50.3751 51.7962L5.95557 51.7086C5.95416 51.7086 5.95275 51.7086 5.95134 51.7086C4.77677 51.7086 3.82216 52.6483 3.81934 53.8063C3.81793 54.3652 4.03931 54.8921 4.44258 55.291C4.84586 55.6914 5.38027 55.911 5.94711 55.9124L50.3667 56C50.9378 56 51.4679 55.7831 51.8726 55.3842C52.2787 54.9866 52.5015 54.4597 52.5029 53.9023C52.5057 52.7429 51.5511 51.7976 50.3751 51.7962Z" fill="#FFDA9D"/>
</svg>
