<svg width="55" height="56" viewBox="0 0 55 56" fill="none" xmlns="http://www.w3.org/2000/svg">
<path fill-rule="evenodd" clip-rule="evenodd" d="M27.4999 14.0791C31.2689 14.0791 34.3243 17.1452 34.3243 20.9276C34.3243 24.5885 32.1672 24.5364 31.3996 28.8897C31.3569 28.8876 31.3139 28.8866 31.2707 28.8866H28.302V22.6647L30.8274 21.2015C31.2098 20.9792 31.3403 20.4879 31.1188 20.1041C30.8973 19.7204 30.4077 19.5895 30.0253 19.8117L27.4983 21.2759L24.9713 19.8117C24.589 19.5912 24.1007 19.7235 23.881 20.1073C23.6612 20.491 23.7931 20.9809 24.1754 21.2015L26.6979 22.6628V28.8864H23.7291C23.6859 28.8864 23.643 28.8876 23.6002 28.8896C22.8326 24.5363 20.6756 24.5883 20.6756 20.9275C20.6756 17.1452 23.731 14.0791 27.4999 14.0791ZM52.7175 23.639C51.7393 23.639 50.9049 23.0213 50.5802 22.1535H47.694L47.7025 26.7925H46.1046L46.0946 21.3486C46.0946 20.9057 46.4524 20.5467 46.8936 20.5467L50.5803 20.5436C50.905 19.6758 51.7394 19.0581 52.7176 19.0581C53.9782 19.0581 55 20.0836 55 21.3486C55 22.6136 53.9779 23.639 52.7175 23.639ZM19.4114 4.97214C19.0983 5.2864 18.5905 5.2864 18.2772 4.97214C17.964 4.65787 17.964 4.14824 18.2772 3.83386C20.7249 1.37757 24.039 0 27.5002 0C30.9615 0 34.275 1.37803 36.7226 3.83443C37.0357 4.1487 37.0357 4.65844 36.7226 4.97271C36.4094 5.28698 35.9016 5.28698 35.5883 4.97271C33.4294 2.80585 30.5533 1.60985 27.5002 1.60985C24.4471 1.60985 21.5704 2.80539 19.4114 4.97214ZM24.8719 10.4519C24.5587 10.7662 24.0509 10.7662 23.7376 10.4519C23.4245 10.1377 23.4245 9.62805 23.7376 9.31379C24.7006 8.34741 26.0309 7.7497 27.5002 7.7497C28.9067 7.7497 30.268 8.31568 31.2627 9.31379C31.5759 9.62805 31.5759 10.1377 31.2627 10.4519C30.9496 10.7662 30.4417 10.7662 30.1285 10.4519C29.4225 9.7435 28.4985 9.35955 27.5002 9.35955C26.4737 9.35955 25.5445 9.77696 24.8719 10.4519ZM33.9927 6.57405C32.2715 4.8468 29.934 3.87491 27.5002 3.87491C25.0663 3.87491 22.7286 4.84668 21.0075 6.57382C20.6943 6.88809 20.6943 7.39772 21.0075 7.7121C21.3206 8.02637 21.8284 8.02637 22.1417 7.7121C23.5742 6.2745 25.4745 5.48476 27.5002 5.48476C29.5259 5.48476 31.426 6.27473 32.8585 7.71221C33.1717 8.02648 33.6795 8.02648 33.9927 7.71221C34.3059 7.39795 34.3059 6.88832 33.9927 6.57405ZM2.28249 23.639C3.26068 23.639 4.09507 23.0213 4.41968 22.1535H7.3059L7.29754 26.7925H8.89539L8.90525 21.3486C8.90525 20.9057 8.54752 20.5467 8.10626 20.5467L4.41957 20.5436C4.09495 19.6758 3.26056 19.0581 2.28237 19.0581C1.02185 19.0581 0 20.0836 0 21.3486C0 22.6136 1.02196 23.639 2.28249 23.639ZM53.1935 32.9748C54.1915 32.9748 54.9999 32.163 54.9999 31.162V28.6326C54.9999 28.5057 54.8968 28.4022 54.7704 28.4022H41.1661C41.0412 28.4022 40.939 28.5034 40.9369 28.6288C40.8163 35.9728 34.8465 41.8887 27.4999 41.8887C20.1532 41.8887 14.1836 35.9727 14.0631 28.6289C14.061 28.5033 13.9589 28.4023 13.8339 28.4023C12.5107 28.4023 0.000114629 28.1525 0.000114629 28.6327V31.1621C0.000114629 32.1631 0.808495 32.9749 1.80651 32.9749C7.22203 32.9749 9.93913 39.5589 6.11 43.4015C5.40463 44.1094 5.40463 45.2576 6.11 45.9655L9.99905 49.8683C10.7044 50.5762 11.8485 50.5762 12.5538 49.8683C16.3877 46.0208 22.9436 48.7458 22.9436 54.1872C22.9436 55.1888 23.7525 56 24.75 56H30.2497C31.247 56 32.0561 55.1888 32.0561 54.1872C32.0561 48.7525 38.6169 46.0257 42.446 49.8683C43.1514 50.5762 44.2955 50.5762 45.0008 49.8683L48.8899 45.9655C49.5953 45.2576 49.5953 44.1095 48.8899 43.4015C45.0608 39.5588 47.778 32.9748 53.1935 32.9748ZM23.7291 30.4963H31.2707C31.8912 30.4963 32.3989 31.0058 32.3989 31.6285V34.072C32.3989 34.6947 31.8913 35.2042 31.2707 35.2042H30.111V36.3394C30.111 36.9268 29.6321 37.4074 29.0468 37.4074H25.9531C25.3677 37.4074 24.8887 36.9267 24.8887 36.3394V35.2042H23.729C23.1086 35.2042 22.6008 34.6947 22.6008 34.072V31.6285C22.601 31.0058 23.1087 30.4963 23.7291 30.4963Z" fill="#FFDA9D"/>
</svg>
