<svg width="56" height="56" viewBox="0 0 56 56" fill="none" xmlns="http://www.w3.org/2000/svg">
<path d="M37.0722 42.5125C35.816 41.5094 34.8486 40.1644 34.3002 38.6205H33.7933C32.1963 38.6205 30.8967 37.321 30.8967 35.724C30.8967 34.127 32.1963 32.8274 33.7933 32.8274H31.8622C31.3293 32.8274 30.8967 32.3959 30.8967 31.8619V27.9999C30.8967 27.4669 31.3293 27.0343 31.8622 27.0343H32.8277C32.8277 21.7105 37.159 17.3792 42.4829 17.3792C42.6461 17.3792 42.8054 17.3956 42.9666 17.4033C39.5487 12.5825 33.9893 9.65503 28.0002 9.65503C22.0024 9.65503 16.4487 12.5796 13.0317 17.4033C13.1939 17.3956 13.3533 17.3792 13.5174 17.3792C18.8413 17.3792 23.1726 21.7105 23.1726 27.0343H24.1381C24.671 27.0343 25.1036 27.4669 25.1036 27.9999V31.8619C25.1036 32.3959 24.671 32.8274 24.1381 32.8274H22.207C23.804 32.8274 25.1036 34.127 25.1036 35.724C25.1036 37.321 23.804 38.6205 22.207 38.6205H21.7002C21.1517 40.1644 20.1843 41.5084 18.9282 42.5125C22.964 42.7336 26.4013 45.2083 28.0002 48.7054C29.6 45.2083 33.0373 42.7327 37.0722 42.5125Z" fill="#FFDA9D"/>
<path d="M7.50781 44.5036L10.1302 49.0927L11.954 48.637L9.13857 44.4138H8.68961C8.28795 44.4138 7.89595 44.4505 7.50781 44.5036Z" fill="#FFDA9D"/>
<path d="M20.2755 32.8276H6.7583V35.7242C6.7583 39.4501 9.79002 42.4828 13.5169 42.4828C17.2438 42.4828 20.2755 39.4501 20.2755 35.7242V32.8276Z" fill="#FFDA9D"/>
<path d="M21.465 45.0027L18.218 50.6857C18.0423 50.9908 17.7198 51.1723 17.379 51.1723C17.3008 51.1723 17.2226 51.1627 17.1444 51.1434L14.4824 50.4772V55.9999H21.241V50.2068H23.1721V55.9999H27.0341V53.1034C27.0341 49.4122 24.7169 46.2598 21.465 45.0027Z" fill="#FFDA9D"/>
<path d="M11.4585 44.4138L13.517 47.5006L15.5755 44.4138H11.4585Z" fill="#FFDA9D"/>
<path d="M4.82733 36.6898H4.8843C4.84857 36.3722 4.82733 36.0507 4.82733 35.7243V34.7588C4.29533 34.7588 3.86182 35.1913 3.86182 35.7243C3.86182 36.2573 4.29533 36.6898 4.82733 36.6898Z" fill="#FFDA9D"/>
<path d="M15.0806 48.637L16.9044 49.0927L19.5268 44.5036C19.1386 44.4505 18.7466 44.4138 18.345 44.4138H17.896L15.0806 48.637Z" fill="#FFDA9D"/>
<path d="M3.86182 28.9656H23.1722V30.8966H3.86182V28.9656Z" fill="#FFDA9D"/>
<path d="M22.2069 36.6898C22.7389 36.6898 23.1724 36.2573 23.1724 35.7243C23.1724 35.1913 22.7389 34.7588 22.2069 34.7588V35.7243C22.2069 36.0507 22.1856 36.3722 22.1499 36.6898H22.2069Z" fill="#FFDA9D"/>
<path d="M9.65517 51.1723C9.31434 51.1723 8.9909 50.9908 8.8171 50.6857L5.5691 45.0027C2.31724 46.2598 0 49.4122 0 53.1034V55.9999H3.86207V50.2068H5.7931V55.9999H12.5517V50.4772L9.88979 51.1424C9.81159 51.1627 9.73338 51.1723 9.65517 51.1723Z" fill="#FFDA9D"/>
<path d="M14.4824 19.377V27.0345H21.241C21.241 23.1029 18.2866 19.8549 14.4824 19.377Z" fill="#FFDA9D"/>
<path d="M5.79346 27.0345H12.5521V19.377C8.74794 19.8549 5.79346 23.1029 5.79346 27.0345Z" fill="#FFDA9D"/>
<path d="M32.8276 35.7243C32.8276 36.2573 33.2612 36.6898 33.7932 36.6898H33.8501C33.8144 36.3722 33.7932 36.0507 33.7932 35.7243V34.7588C33.2612 34.7588 32.8276 35.1913 32.8276 35.7243Z" fill="#FFDA9D"/>
<path d="M40.4243 44.4138L42.4828 47.5006L44.5413 44.4138H40.4243Z" fill="#FFDA9D"/>
<path d="M38.621 51.1723C38.2802 51.1723 37.9567 50.9908 37.7829 50.6857L34.5359 45.0027C31.2831 46.2598 28.9658 49.4122 28.9658 53.1034V55.9999H32.8279V50.2068H34.7589V55.9999H41.5175V50.4772L38.8556 51.1424C38.7774 51.1627 38.6992 51.1723 38.621 51.1723Z" fill="#FFDA9D"/>
<path d="M34.7583 27.0345H41.5169V19.377C37.7128 19.8549 34.7583 23.1029 34.7583 27.0345Z" fill="#FFDA9D"/>
<path d="M52.6352 24.1379C52.1727 24.1379 51.7759 23.8106 51.688 23.3568C51.0662 20.1648 49.8284 17.1823 48.0084 14.4924C47.7487 14.1091 47.7979 13.5954 48.1252 13.2681L50.7727 10.6207L45.3793 5.22731L42.7309 7.87572C42.4046 8.20207 41.8928 8.25228 41.5066 7.99255C38.8167 6.17255 35.8342 4.93476 32.6422 4.31297C32.1894 4.22414 31.8621 3.82731 31.8621 3.36483V0H24.1379V3.36483C24.1379 3.82731 23.8106 4.22414 23.3568 4.312C20.1648 4.93379 17.1823 6.17159 14.4924 7.99159C14.1072 8.25131 13.5954 8.2011 13.2681 7.87476L10.6207 5.22731L5.22731 10.6207L7.87572 13.2691C8.20303 13.5964 8.25228 14.1101 7.99255 14.4934C6.17255 17.1833 4.93476 20.1658 4.31297 23.3578C4.22414 23.8106 3.82731 24.1379 3.36483 24.1379H0V31.8621H1.93103V28C1.93103 27.467 2.36359 27.0345 2.89655 27.0345H3.86207C3.86207 22.791 6.61766 19.1858 10.4305 17.8939C14.0502 11.6123 20.7297 7.72414 28 7.72414C35.2607 7.72414 41.9527 11.6142 45.5714 17.8949C49.3833 19.1868 52.1379 22.791 52.1379 27.0345H53.1034C53.6364 27.0345 54.069 27.467 54.069 28V31.8621H56V24.1379H52.6352Z" fill="#FFDA9D"/>
<path d="M50.4309 45.0027L47.1838 50.6857C47.0081 50.9908 46.6856 51.1723 46.3448 51.1723C46.2666 51.1723 46.1884 51.1627 46.1102 51.1434L43.4482 50.4772V55.9999H50.2069V50.2068H52.1379V55.9999H56V53.1034C56 49.4122 53.6827 46.2598 50.4309 45.0027Z" fill="#FFDA9D"/>
<path d="M36.4736 44.5036L39.096 49.0927L40.9198 48.637L38.1044 44.4138H37.6554C37.2538 44.4138 36.8618 44.4505 36.4736 44.5036Z" fill="#FFDA9D"/>
<path d="M43.4482 19.377V27.0345H50.2069C50.2069 23.1029 47.2524 19.8549 43.4482 19.377Z" fill="#FFDA9D"/>
<path d="M32.8276 28.9656H52.138V30.8966H32.8276V28.9656Z" fill="#FFDA9D"/>
<path d="M51.1727 35.7243C51.1727 36.0507 51.1514 36.3722 51.1157 36.6898H51.1727C51.7047 36.6898 52.1382 36.2573 52.1382 35.7243C52.1382 35.1913 51.7047 34.7588 51.1727 34.7588V35.7243Z" fill="#FFDA9D"/>
<path d="M44.0459 48.637L45.8698 49.0927L48.4921 44.5036C48.104 44.4505 47.712 44.4138 47.3103 44.4138H46.8613L44.0459 48.637Z" fill="#FFDA9D"/>
<path d="M49.2414 32.8276H35.7241V35.7242C35.7241 39.4501 38.7558 42.4828 42.4827 42.4828C46.2096 42.4828 49.2414 39.4501 49.2414 35.7242V32.8276Z" fill="#FFDA9D"/>
</svg>
