<svg width="32" height="56" viewBox="0 0 32 56" fill="none" xmlns="http://www.w3.org/2000/svg">
<path fill-rule="evenodd" clip-rule="evenodd" d="M17.1271 17.9336C18.7933 17.0669 20.8436 17.803 21.5918 19.5217C23.6089 18.2137 26.322 19.5007 26.5745 21.9012C28.7098 20.7732 31.3245 22.3205 31.3245 24.769V36.7372C31.3245 36.9167 31.3005 41.1148 29.2194 43.1947C29.1416 43.3247 28.5529 44.3838 28.5529 47.2158V55.1257C28.5529 55.6086 28.1616 56 27.678 56H10.0327C9.54911 56 9.15744 55.6083 9.15744 55.125V47.2151C9.15744 45.5821 8.66268 44.4501 8.47718 44.0834C6.87963 42.7928 6.03096 39.4293 5.93608 39.0373L5.91211 27.2714C5.91211 24.8314 8.51034 23.2838 10.645 24.3944V16.252C10.645 14.4651 12.0991 13.011 13.8861 13.011C15.6734 13.011 17.1271 14.4647 17.1271 16.252V17.9336Z" fill="#FFDA9D"/>
<path fill-rule="evenodd" clip-rule="evenodd" d="M4.68094 23.9649C4.45703 23.9649 4.2328 23.8792 4.06208 23.7085C-1.35403 18.2921 -1.35403 9.4783 4.06208 4.0622C9.47916 -1.35423 18.2926 -1.3539 23.709 4.0622C26.7646 7.11776 28.2377 11.4974 27.6487 15.7785C27.4911 16.923 25.758 16.6804 25.9143 15.5402C26.4287 11.7991 25.1421 7.97071 22.4713 5.30058C17.7364 0.566372 10.0337 0.5667 5.29947 5.30058C0.565591 10.0348 0.565591 17.7375 5.29947 22.4718C5.85135 23.0236 5.45476 23.9649 4.68126 23.9649H4.68094Z" fill="#FFDA9D"/>
<path fill-rule="evenodd" clip-rule="evenodd" d="M8.60109 19.7998C7.01307 19.7998 3.23687 12.969 8.10338 8.10282C11.2919 4.91495 16.4798 4.91495 19.668 8.10282C21.6612 10.0963 22.4938 13.0379 21.8411 15.7803C21.5745 16.9025 19.8716 16.4954 20.1378 15.3748C21.6211 9.13469 13.9207 4.76097 9.34143 9.34021C6.85318 11.8285 6.80623 15.7731 9.23473 18.3201C9.76757 18.8792 9.36375 19.7998 8.60109 19.7998Z" fill="#FFDA9D"/>
</svg>
