<svg width="56" height="56" viewBox="0 0 56 56" fill="none" xmlns="http://www.w3.org/2000/svg">
<path d="M28 1.10132V11.2H38.0987L28 1.10132Z" fill="#FFDA9D"/>
<path d="M31.7333 26.1333C31.736 23.8194 32.4552 21.5631 33.7923 19.6746C35.1293 17.786 37.0184 16.358 39.2 15.5867V14.9333H26.1333C25.6383 14.9333 25.1635 14.7367 24.8134 14.3866C24.4633 14.0365 24.2667 13.5617 24.2667 13.0667V0H1.86667C1.3716 0 0.896802 0.196666 0.546734 0.546734C0.196666 0.896802 0 1.3716 0 1.86667V50.4C0 50.8951 0.196666 51.3699 0.546734 51.7199C0.896802 52.07 1.3716 52.2667 1.86667 52.2667H26.1333V44.8H7.46667V41.0667H26.1333V36.4H7.46667V32.6667H26.9173C27.406 31.8203 28.1076 31.1165 28.9525 30.6253C29.7973 30.1341 30.7561 29.8726 31.7333 29.8667V26.1333ZM20.5333 28H7.46667V24.2667H20.5333V28Z" fill="#FFDA9D"/>
<path d="M54.1334 33.6001H39.2V26.1334C39.2 25.1433 39.5934 24.1937 40.2935 23.4935C40.9936 22.7934 41.9432 22.4001 42.9334 22.4001C43.9235 22.4001 44.8731 22.7934 45.5732 23.4935C46.2734 24.1937 46.6667 25.1433 46.6667 26.1334V29.8667H50.4V26.1334C50.4 24.1531 49.6134 22.254 48.2131 20.8537C46.8128 19.4534 44.9136 18.6667 42.9334 18.6667C40.9531 18.6667 39.0539 19.4534 37.6536 20.8537C36.2534 22.254 35.4667 24.1531 35.4667 26.1334V33.6001H31.7334C31.2383 33.6001 30.7635 33.7967 30.4134 34.1468C30.0634 34.4969 29.8667 34.9717 29.8667 35.4667V54.1334C29.8667 54.6285 30.0634 55.1033 30.4134 55.4533C30.7635 55.8034 31.2383 56.0001 31.7334 56.0001H54.1334C54.6284 56.0001 55.1032 55.8034 55.4533 55.4533C55.8034 55.1033 56 54.6285 56 54.1334V35.4667C56 34.9717 55.8034 34.4969 55.4533 34.1468C55.1032 33.7967 54.6284 33.6001 54.1334 33.6001ZM45.2667 44.8001H40.6V41.0667H45.2667V44.8001Z" fill="#FFDA9D"/>
</svg>
