<svg width="56" height="56" viewBox="0 0 56 56" fill="none" xmlns="http://www.w3.org/2000/svg">
<path d="M26.6875 8.20314H29.3234C31.7734 8.19322 34.1989 8.69027 36.4475 9.66304C38.6961 10.6358 40.7191 12.0633 42.3894 13.8556C42.7577 14.249 43.2003 14.5654 43.6916 14.7868C44.1828 15.0081 44.7131 15.1299 45.2517 15.1452H45.3808C46.4244 15.1473 47.429 14.7487 48.1874 14.0317L48.9836 13.2825C49.5634 12.7353 49.9023 11.9803 49.9259 11.1834C49.9495 10.3865 49.6558 9.61277 49.1094 9.0322L48.3602 8.23595C45.9188 5.63305 42.969 3.55904 39.6935 2.14237C36.4181 0.725706 32.8867 -0.00346538 29.318 1.23819e-05H26.6875C20.5622 0.00121573 14.6315 2.15178 9.92907 6.07689L9.09017 6.78126C8.4788 7.29342 8.09559 8.02721 8.02464 8.82159C7.95369 9.61597 8.2008 10.4061 8.71173 11.0184L9.41282 11.8574C10.1105 12.6919 11.1111 13.2151 12.1945 13.3119C13.2779 13.4087 14.3554 13.0712 15.19 12.3736C18.4159 9.68003 22.4849 8.2041 26.6875 8.20314Z" fill="#FFDA9D"/>
<path d="M31.8281 32.6484C32.2812 32.6484 32.6484 32.2812 32.6484 31.8281C32.6484 31.3751 32.2812 31.0078 31.8281 31.0078C31.3751 31.0078 31.0078 31.3751 31.0078 31.8281C31.0078 32.2812 31.3751 32.6484 31.8281 32.6484Z" fill="#FFDA9D"/>
<path d="M24.1719 24.9922C24.6249 24.9922 24.9922 24.6249 24.9922 24.1719C24.9922 23.7188 24.6249 23.3516 24.1719 23.3516C23.7188 23.3516 23.3516 23.7188 23.3516 24.1719C23.3516 24.6249 23.7188 24.9922 24.1719 24.9922Z" fill="#FFDA9D"/>
<path d="M40.8516 28C40.8516 25.4582 40.0978 22.9735 38.6857 20.8601C37.2735 18.7466 35.2664 17.0994 32.9181 16.1267C30.5698 15.154 27.9857 14.8995 25.4928 15.3954C22.9998 15.8913 20.7099 17.1153 18.9126 18.9126C17.1153 20.7099 15.8913 22.9998 15.3954 25.4928C14.8995 27.9857 15.154 30.5698 16.1267 32.9181C17.0994 35.2664 18.7466 37.2735 20.8601 38.6857C22.9735 40.0978 25.4582 40.8516 28 40.8516C31.4073 40.8478 34.674 39.4926 37.0833 37.0833C39.4926 34.674 40.8478 31.4073 40.8516 28ZM31.8281 34.2891C31.3414 34.2891 30.8656 34.1447 30.4609 33.8743C30.0562 33.6039 29.7408 33.2196 29.5545 32.7699C29.3683 32.3202 29.3195 31.8254 29.4145 31.348C29.5094 30.8706 29.7438 30.4322 30.088 30.088C30.4322 29.7438 30.8706 29.5094 31.348 29.4145C31.8254 29.3195 32.3202 29.3683 32.7699 29.5545C33.2196 29.7408 33.6039 30.0562 33.8743 30.4609C34.1447 30.8656 34.2891 31.3414 34.2891 31.8281C34.2885 32.4806 34.029 33.1062 33.5676 33.5676C33.1062 34.029 32.4806 34.2885 31.8281 34.2891ZM24.1719 21.7109C24.6586 21.7109 25.1344 21.8553 25.5391 22.1257C25.9438 22.3961 26.2592 22.7804 26.4455 23.2301C26.6318 23.6798 26.6805 24.1746 26.5855 24.652C26.4906 25.1294 26.2562 25.5679 25.912 25.912C25.5679 26.2562 25.1294 26.4906 24.652 26.5855C24.1746 26.6805 23.6798 26.6318 23.2301 26.4455C22.7804 26.2592 22.3961 25.9438 22.1257 25.5391C21.8553 25.1344 21.7109 24.6586 21.7109 24.1719C21.7115 23.5194 21.971 22.8938 22.4324 22.4324C22.8938 21.971 23.5194 21.7115 24.1719 21.7109ZM22.5313 34.2891C22.3691 34.2889 22.2107 34.2407 22.0759 34.1506C21.9411 34.0604 21.8361 33.9324 21.7741 33.7826C21.712 33.6328 21.6958 33.4679 21.7274 33.3089C21.759 33.1499 21.837 33.0038 21.9516 32.8891L32.8891 21.9516C33.0446 21.8067 33.2502 21.7278 33.4628 21.7315C33.6753 21.7353 33.878 21.8214 34.0283 21.9717C34.1786 22.122 34.2647 22.3247 34.2685 22.5372C34.2722 22.7498 34.1933 22.9554 34.0484 23.1109L23.1109 34.0484C23.0351 34.1249 22.9447 34.1856 22.8452 34.2269C22.7457 34.2682 22.639 34.2893 22.5313 34.2891Z" fill="#FFDA9D"/>
<path d="M45.6094 30.4609V48.5078C45.6094 48.9429 45.7822 49.3602 46.0899 49.6679C46.3976 49.9756 46.8149 50.1484 47.25 50.1484H48.8906V28.8203H47.25C46.8149 28.8203 46.3976 28.9932 46.0899 29.3008C45.7822 29.6085 45.6094 30.0258 45.6094 30.4609Z" fill="#FFDA9D"/>
<path d="M54.3594 32.6484H50.5312V47.9609H54.3594C54.7945 47.9609 55.2118 47.7881 55.5195 47.4804C55.8271 47.1727 56 46.7554 56 46.3203V34.2891C56 33.8539 55.8271 33.4366 55.5195 33.129C55.2118 32.8213 54.7945 32.6484 54.3594 32.6484Z" fill="#FFDA9D"/>
<path d="M50.5312 28.2734H53.8125V31.0078H50.5312V28.2734Z" fill="#FFDA9D"/>
<path d="M49.3054 15.2283C48.9242 15.587 48.4959 15.8921 48.0322 16.135C49.6797 19.2123 50.5384 22.6501 50.5314 26.1406V26.6383H52.1721V26.1406C52.1787 22.3066 51.2155 18.5331 49.3721 15.1714L49.3054 15.2283Z" fill="#FFDA9D"/>
<path d="M8.75 28.8203H7.10938V50.1484H8.75C9.18512 50.1484 9.60242 49.9756 9.9101 49.6679C10.2178 49.3602 10.3906 48.9429 10.3906 48.5078V30.4609C10.3906 30.0258 10.2178 29.6085 9.9101 29.3008C9.60242 28.9932 9.18512 28.8203 8.75 28.8203Z" fill="#FFDA9D"/>
<path d="M0 34.2891V46.3203C0 46.7554 0.172851 47.1727 0.480528 47.4804C0.788205 47.7881 1.2055 47.9609 1.64062 47.9609H5.46875V32.6484H1.64062C1.2055 32.6484 0.788205 32.8213 0.480528 33.129C0.172851 33.4366 0 33.8539 0 34.2891Z" fill="#FFDA9D"/>
<path d="M2.1875 28.2734H5.46875V31.0078H2.1875V28.2734Z" fill="#FFDA9D"/>
<path d="M33.1953 51.625H29.3672C28.787 51.625 28.2306 51.8555 27.8204 52.2657C27.4102 52.6759 27.1797 53.2323 27.1797 53.8125C27.1797 54.3927 27.4102 54.9491 27.8204 55.3593C28.2306 55.7695 28.787 56 29.3672 56H35.3828V53.8125C35.3828 53.2323 35.1523 52.6759 34.7421 52.2657C34.3319 51.8555 33.7755 51.625 33.1953 51.625Z" fill="#FFDA9D"/>
<path d="M51.625 51.8984C51.6244 52.5509 51.365 53.1766 50.9036 53.6379C50.4422 54.0993 49.8166 54.3588 49.1641 54.3594H37.0234V56H49.1641C50.2515 55.9988 51.2941 55.5663 52.063 54.7974C52.832 54.0285 53.2645 52.9859 53.2656 51.8984V49.6016H51.625V51.8984Z" fill="#FFDA9D"/>
<path d="M8.15391 12.9062L8.09594 12.8362C5.31774 16.7159 3.8252 21.3687 3.82813 26.1406V26.6382H5.46875V26.1406C5.46552 21.7814 6.80691 17.5273 9.31 13.9584C8.87876 13.6616 8.48983 13.3077 8.15391 12.9062Z" fill="#FFDA9D"/>
</svg>
