<svg width="44" height="56" viewBox="0 0 44 56" fill="none" xmlns="http://www.w3.org/2000/svg">
<path fill-rule="evenodd" clip-rule="evenodd" d="M22.0003 7.6225C30.222 7.6225 36.8872 14.2529 36.8872 22.4316C36.8872 30.6102 30.222 37.2406 22.0003 37.2406C13.7786 37.2406 7.11336 30.6102 7.11336 22.4316C7.11336 14.2529 13.7786 7.6225 22.0003 7.6225ZM15.0775 30.2165C14.0271 30.537 13.0719 30.9275 12.2374 31.3751C13.6861 32.9396 15.5052 34.1505 17.5548 34.8751C16.4533 33.5721 15.6426 31.912 15.0775 30.2166V30.2165ZM21.1975 29.2574C19.5828 29.3054 18.0475 29.497 16.6387 29.808C17.4546 32.2111 18.9992 34.9384 21.185 35.5248L21.1975 29.2574ZM27.3618 29.808C25.954 29.4973 24.4197 29.3055 22.8061 29.2574L22.7936 35.5307C24.9905 34.9573 26.5434 32.2185 27.3618 29.808ZM31.7632 31.375C30.9286 30.9275 29.9735 30.5369 28.9231 30.2163C28.3581 31.9118 27.5473 33.5717 26.4459 34.8747C28.4959 34.1501 30.3143 32.9394 31.7633 31.375H31.7632ZM29.3705 28.677C30.6433 29.0643 31.7973 29.5495 32.7955 30.1135C34.2036 28.1589 35.0885 25.806 35.2466 23.2575L30.0994 23.2473C30.0429 25.1793 29.787 27.0137 29.3703 28.677H29.3705ZM22.8094 27.6505C24.576 27.7009 26.2627 27.9157 27.8128 28.2659C28.1938 26.7338 28.4292 25.0377 28.484 23.2441L22.8181 23.2329L22.8094 27.6503V27.6505ZM16.1878 28.2659C17.7407 27.9151 19.4305 27.7002 21.2007 27.6502L21.2095 23.2299L15.5158 23.2187C15.5692 25.0218 15.805 26.7265 16.1878 28.266V28.2659ZM11.2052 30.1133C12.2033 29.5495 13.3574 29.0642 14.6301 28.677C14.2112 27.0045 13.9549 25.1591 13.9002 23.2154L8.75095 23.2054C8.90019 25.7739 9.78755 28.1454 11.2052 30.1133ZM28.9231 14.6464C29.9735 14.3259 30.9286 13.9354 31.7632 13.4877C30.3148 11.9234 28.495 10.7121 26.4456 9.98766C27.5474 11.2909 28.358 12.9506 28.9232 14.6464H28.9231ZM22.8332 15.6045C24.437 15.555 25.9619 15.3637 27.3618 15.0547C26.5494 12.6619 25.0159 9.95024 22.8456 9.3461L22.8332 15.6045ZM16.6387 15.0547C18.0553 15.3675 19.6 15.5595 21.2247 15.6061L21.2372 9.32437C19.0246 9.87965 17.4606 12.6339 16.6388 15.0547H16.6387ZM12.2374 13.4877C13.0719 13.9354 14.0271 14.3259 15.0775 14.6464C15.6427 12.9507 16.4532 11.2913 17.5547 9.98804C15.5054 10.7125 13.6859 11.9234 12.2374 13.4877ZM14.6301 16.1857C13.3574 15.7984 12.2033 15.3132 11.2051 14.7494C9.79714 16.704 8.91219 19.0568 8.75398 21.6052L13.9011 21.6154C13.9575 19.6834 14.2135 17.8491 14.63 16.1857H14.6301ZM21.2215 17.2131C19.4439 17.1642 17.7468 16.949 16.1878 16.5968C15.8067 18.1289 15.5714 19.8249 15.5166 21.6185L21.2128 21.6297L21.2215 17.2131ZM27.8129 16.5968C26.2689 16.9456 24.5892 17.1601 22.8302 17.2118L22.8215 21.633L28.485 21.6442C28.4316 19.8411 28.1959 18.1363 27.813 16.597L27.8129 16.5968ZM32.7955 14.7494C31.7974 15.3132 30.6433 15.7985 29.3706 16.1857C29.7895 17.8582 30.0458 19.7035 30.1005 21.6472L35.2498 21.6572C35.1005 19.0887 34.2132 16.7172 32.7955 14.7493V14.7494ZM24.4097 1.05202C22.2223 -0.350673 21.7785 -0.350673 19.591 1.05202C17.5458 2.3634 16.9355 2.50684 14.5231 2.20779C12.0903 1.90622 11.7798 2.04928 10.5467 4.14403C9.32682 6.21642 8.84413 6.60063 6.5433 7.33199C4.25168 8.06047 4.03792 8.33 3.81571 10.7145C3.59298 13.1048 3.31673 13.6689 1.56601 15.3184C-0.247843 17.0273 -0.323725 17.391 0.515651 19.755C1.35048 22.106 1.35048 22.7567 0.515651 25.1077C-0.323599 27.4714 -0.248096 27.8353 1.56601 29.5444C3.31673 31.1937 3.59286 31.7578 3.81558 34.1481C4.0378 36.5326 4.25168 36.8023 6.54317 37.5306C7.38154 37.7971 8.25879 38.0731 8.95272 38.627C10.3627 39.7526 10.9019 42.0101 12.0813 42.5855C13.2564 43.1587 15.4051 42.2138 17.2142 42.636C19.0264 43.0589 20.5554 44.8629 22.0003 44.8629C23.4452 44.8629 24.9743 43.0589 26.7866 42.636C28.5959 42.2137 30.7443 43.1588 31.9194 42.5855C33.0988 42.0101 33.6379 39.7527 35.048 38.627C36.4602 37.4995 38.7817 37.4736 39.598 36.4618C40.4121 35.4527 39.9399 33.1909 40.7446 31.5587C41.5528 29.9195 43.6445 28.8924 43.955 27.576C44.2662 26.2561 42.8613 24.3361 42.8613 22.4312C42.8613 20.5262 44.2662 18.6062 43.955 17.2864C43.6445 15.97 41.5526 14.9427 40.7446 13.3036C39.9399 11.6714 40.412 9.40966 39.598 8.40059C38.7817 7.38889 36.4598 7.36251 35.048 6.23538C33.6379 5.10963 33.0988 2.85236 31.9194 2.27699C30.7443 1.70363 28.5957 2.64864 26.7866 2.2265C25.93 2.02667 25.1735 1.54148 24.4097 1.05177V1.05202ZM16.6466 44.1609L9.86078 56L7.97105 50.4352C7.83974 50.0451 7.43583 49.8221 7.04076 49.906L7.04051 49.9049L1.26298 51.1217L7.77736 39.7561C9.06016 40.5969 9.50434 43.1101 11.3746 44.0226C13.086 44.8574 15.1477 43.9453 16.6464 44.1609H16.6466ZM36.2232 39.7561L42.7377 51.1217L36.9602 49.9049L36.9599 49.906C36.5649 49.8223 36.161 50.0451 36.0297 50.4352L34.1401 56L27.3542 44.1609C28.8533 43.9452 30.9145 44.8574 32.6259 44.0226C34.4964 43.1101 34.9398 40.5977 36.2232 39.7561Z" fill="#FFDA9D"/>
</svg>
