<svg width="102" height="102" viewBox="0 0 102 102" fill="none" xmlns="http://www.w3.org/2000/svg">
<path d="M38.8564 0H63.1419V14.5719H58.2851V9.71355H53.4283V4.85678H48.57V9.71355H43.7132V4.85678H38.8564V0Z" fill="white"/>
<path d="M-0.000488281 0V34.0006H34.0001V0H-0.000488281ZM29.1417 29.1422H4.85629V4.85678H29.1417V29.1422Z" fill="white"/>
<path d="M67.9995 0V34.0006H102V0H67.9995ZM97.1417 29.1422H72.8579V4.85678H97.1433L97.1417 29.1422Z" fill="white"/>
<path d="M9.71338 9.71338H24.2853V24.2853H9.71338V9.71338Z" fill="white"/>
<path d="M77.7139 9.71338H92.2858V24.2853H77.7139V9.71338Z" fill="white"/>
<path d="M38.8564 14.5723H43.7148V19.429H38.8564V14.5723Z" fill="white"/>
<path d="M53.4295 14.5723H58.2863V19.429H63.143V24.2858H43.7144V19.429H53.4295V14.5723Z" fill="white"/>
<path d="M38.8564 29.1426H43.7148V33.9994H38.8564V29.1426Z" fill="white"/>
<path d="M48.5708 29.1426H53.4291V33.9994H48.5708V29.1426Z" fill="white"/>
<path d="M9.71306 38.8574H14.5714V43.7142H19.4282V38.8574H34.0001V43.7142H29.1417V48.571H24.285V53.4293H29.1417V58.2861H43.7136V53.4293H48.5704V58.2861H53.4288V63.1429H58.2855V67.9996H53.4288V72.858H48.5704V77.7132H53.4288V82.5715H63.1423V92.2867H72.8574V102H67.9991V97.1419H63.1423V102H58.2855V87.4283H53.4288V97.1419H43.7136V92.2867H48.5704V82.5715H38.8569V72.858H43.7136V67.9996H38.8569V63.1429H24.285V58.2861H19.4282V48.571H14.5714V53.4293H9.71306V63.1429H4.85629V58.2861H-0.000488281V53.4293H4.85629V48.571H9.71306V38.8574Z" fill="white"/>
<path d="M82.5708 38.8574H87.4276V48.571H82.5708V38.8574Z" fill="white"/>
<path d="M97.1404 38.8574H101.999V53.4293H92.2852V43.7142H97.1404V38.8574Z" fill="white"/>
<path d="M-0.000488281 43.7144H4.85629V48.5711H-0.000488281V43.7144Z" fill="white"/>
<path d="M29.1426 48.5713H34.0009V53.4296H29.1426V48.5713Z" fill="white"/>
<path d="M68.0001 43.7144V38.8576H63.1433V29.144H58.285V38.8576H48.5714V34.0008H43.7146V38.8576H38.8563V43.7144H33.9995V48.5711H38.8563V53.4295H43.7146V48.5711H53.4282V43.7144H58.285V48.5711H53.4282V58.2847H58.285V63.143H63.1433V67.9998H68.0001V63.143H72.8584V43.7144H68.0001ZM68.0001 58.2863H63.1433V48.5727H68.0001V58.2863Z" fill="white"/>
<path d="M77.7139 48.5713H82.5722V53.4296H77.7139V48.5713Z" fill="white"/>
<path d="M77.7139 58.2861H82.5722V63.1445H77.7139V58.2861Z" fill="white"/>
<path d="M97.1404 58.2861H101.999V82.5716H97.1404V72.858H92.2852V63.1429H97.1404V58.2861Z" fill="white"/>
<path d="M72.8579 63.1431H77.7131V72.8582H82.5714V63.1431H87.4282V77.7134H77.7131V82.5717H72.8579V72.8582H67.9995V67.9998H72.8579V63.1431Z" fill="white"/>
<path d="M-0.000488281 67.9995V102H34.0001V67.9995H-0.000488281ZM29.1417 97.1417H4.85629V72.8579H29.1417V97.1417Z" fill="white"/>
<path d="M63.1436 72.8579H68.0003V82.5715H63.1436V72.8579Z" fill="white"/>
<path d="M9.71338 77.7129H24.2853V92.2848H9.71338V77.7129Z" fill="white"/>
<path d="M87.4277 77.7129H92.2861V82.5712H97.1413V87.428H87.4277V77.7129Z" fill="white"/>
<path d="M38.8564 87.4282H43.7148V92.2866H38.8564V87.4282Z" fill="white"/>
<path d="M77.7139 87.4282H82.5722V92.2866H77.7139V87.4282Z" fill="white"/>
<path d="M97.1421 87.4282H102V92.2866H97.1421V87.4282Z" fill="white"/>
<path d="M87.4277 92.2866H97.1413V97.1418H102V102H87.4277V92.2866Z" fill="white"/>
<path d="M77.7139 97.1421H82.5722V102H77.7139V97.1421Z" fill="white"/>
</svg>
